# Alias OBJ Model File
# Exported from SketchUp, (c) 2000-2012 Trimble Navigation Limited
# File units = meters

mtllib ButlerHallway.mtl

g Mesh1 Model

usemtl FrontColor
v -0.1 0 -26
vt -3.93701 1023.62
vn 0 1 -0
v 0 0 -26
vt 0 1023.62
v -6.01593e-017 0 -26.1
vt -2.36848e-015 1027.56
v 0 0 -29
vt 0 1141.73
v 0 0 -29.1
vt 0 1145.67
v -0.1 0 -29.1
vt -3.93701 1145.67
v -0.1 0 -29
vt -3.93701 1141.73
f 1/1/1 2/2/1 3/3/1 4/4/1 5/5/1 6/6/1 7/7/1 

vn 0 -1 -0
v 0 0 -0
vt 0 0
v -0.1 0 -0
vt 3.93701 0
vt 3.93701 1023.62
f 2/2/2 8/8/2 9/9/2 1/10/2 

v 0 2.5 -26
vt 1023.62 98.4252
vn 1 0 -0
v 0 2.5 -0
vt 0 98.4252
vt 1023.62 0
f 10/11/3 11/12/3 8/8/3 2/13/3 

v -0.1 2.5 -26
v -0.1 2.5 -0
vt -3.93701 0
f 11/8/1 10/2/1 12/1/1 13/14/1 

vn 0 0 -1
vt 3.93701 98.4252
f 10/12/4 2/8/4 1/9/4 12/15/4 

v 4.8 2.5 -26
vt 188.976 98.4252
vn 6.01593e-016 0 1
vt 6.15804e-013 98.4252
vt 6.15804e-013 0
v 4.8 0 -26
vt 188.976 0
f 14/16/5 10/17/5 2/18/5 15/19/5 

vt 188.976 1023.62
v 4.8 2.5 -26.1
vt 188.976 1027.56
v 4.7 2.5 -26.1
vt 185.039 1027.56
v -6.01593e-017 2.5 -26.1
f 10/2/1 14/20/1 16/21/1 17/22/1 18/3/1 

vt 1027.56 98.4252
v 4.8 0 -26.1
vt 1027.56 0
f 16/23/3 14/11/3 15/13/3 19/24/3 

v 4.8 2.5 -29
vt 1141.73 98.4252
v 4.8 0 -29
vt 1141.73 0
f 20/25/3 16/23/3 19/24/3 21/26/3 

vt 188.976 1141.73
v 4.7 2.5 -29
vt 185.039 1141.73
f 16/21/1 20/27/1 22/28/1 17/22/1 

v 4.8 2.5 -29.1
vt 188.976 1145.67
v 0 2.5 -29.1
v 0 2.5 -29
f 22/28/1 20/27/1 23/29/1 24/5/1 25/4/1 

vn 0 0 1
vt 185.039 98.4252
v 4.7 0 -29
vt 185.039 0
f 21/19/6 20/16/6 22/30/6 26/31/6 

v 8.4 2.5 -29
vt 330.709 98.4252
v 8.4 0 -29
vt 330.709 0
f 27/32/6 20/16/6 21/19/6 28/33/6 

vt 330.709 1141.73
v 8.4 2.5 -29.1
vt 330.709 1145.67
f 20/27/1 27/34/1 29/35/1 23/29/1 

v 8.4 0 -29.1
vt 1145.67 0
vt 1145.67 98.4252
f 27/25/3 28/26/3 30/36/3 29/37/3 

v 8.5 0 -29
vt 334.646 0
v 8.5 2.5 -29
vt 334.646 98.4252
f 27/32/6 28/33/6 31/38/6 32/39/6 

v 8.4 0 -24.2
vt 952.756 0
v 8.4 2.5 -24.2
vt 952.756 98.4252
f 33/40/3 28/26/3 27/25/3 34/41/3 

v 8.5 0 -24.2
vt 334.646 952.756
vt 334.646 1141.73
vt 330.709 952.756
f 35/42/1 31/43/1 28/34/1 33/44/1 

v 8.5 2.5 -24.2
vt -952.756 98.4252
vn -1 0 -0
vt -1141.73 98.4252
vt -1141.73 0
vt -952.756 0
f 36/45/7 32/46/7 31/47/7 35/48/7 

f 36/42/1 32/43/1 27/34/1 34/44/1 

v 12 2.5 -29
vt 472.441 1141.73
v 12.1 2.5 -29
vt 476.378 1141.73
v 12.1 2.5 -29.1
vt 476.378 1145.67
f 32/43/1 37/49/1 38/50/1 39/51/1 29/35/1 27/34/1 

vt 472.441 98.4252
v 12 0 -29
vt 472.441 0
f 37/52/6 32/39/6 31/38/6 40/53/6 

v 12.1 0 -29
v 12.1 0 -29.1
f 30/35/1 28/34/1 31/43/1 40/49/1 41/50/1 42/51/1 

vt -330.709 1141.73
vt -188.976 1141.73
v 4.8 0 -29.1
vt -188.976 1145.67
vt -330.709 1145.67
f 28/54/2 21/55/2 43/56/2 30/57/2 

f 20/25/3 21/26/3 43/36/3 23/37/3 

vt -185.039 1141.73
f 21/55/2 26/58/2 4/4/2 5/5/2 43/56/2 

f 22/30/6 25/12/6 4/8/6 26/31/6 

vn 1 -1.07508e-048 9.66969e-018
vt 1027.56 -1.32284e-062
vt 1141.73 -1.1869e-062
f 25/25/8 18/23/8 3/59/8 4/60/8 

v -0.1 2.5 -29.1
v -0.1 2.5 -29
f 18/3/1 25/4/1 24/5/1 44/6/1 45/7/1 12/1/1 10/2/1 

vt -188.976 98.4252
vt -188.976 0
f 24/12/4 23/61/4 43/62/4 5/8/4 6/9/4 44/15/4 

vt -330.709 98.4252
vt -330.709 0
f 23/61/4 29/63/4 30/64/4 43/62/4 

vt -476.378 98.4252
vt -476.378 0
f 29/63/4 39/65/4 42/66/4 30/64/4 

v 12.1 2.5 -26.6
vt -1047.24 98.4252
vt -1145.67 98.4252
vt -1145.67 0
v 12.1 0 -26.6
vt -1047.24 0
f 46/67/7 38/46/7 39/68/7 42/69/7 41/47/7 47/70/7 

v 12 2.5 -26.6
vt -472.441 1047.24
vt -472.441 1141.73
vt -476.378 1141.73
vt -476.378 1047.24
f 48/71/2 37/72/2 38/73/2 46/74/2 

vt 472.441 1047.24
v 12 2.5 -24.2
vt 472.441 952.756
v 12.1 2.5 -24.2
vt 476.378 952.756
vt 476.378 1047.24
f 48/75/1 49/76/1 50/77/1 46/78/1 

v 12 0 -26.6
v 12 0 -24.2
f 49/45/7 48/67/7 51/70/7 52/48/7 

v 12.1 0 -24.2
vt -476.378 952.756
vt -472.441 952.756
f 53/79/2 52/80/2 51/71/2 47/74/2 

vt 476.378 0
vt 476.378 98.4252
f 49/52/6 52/53/6 53/81/6 50/82/6 

v 12 2.5 -12.105
vt -476.575 98.4252
v 12 0 -12.105
vt -476.575 0
f 54/83/7 49/45/7 52/48/7 55/84/7 

vt 472.441 476.575
v 12.1 2.5 -12.105
vt 476.378 476.575
f 49/76/1 54/85/1 56/86/1 50/77/1 

v 12.1 0 -12.105
f 54/52/6 55/53/6 57/81/6 56/82/6 

vt -476.378 476.575
vt -472.441 476.575
f 57/87/2 55/88/2 52/80/2 53/79/2 

vt 476.575 98.4252
vt 476.575 0
f 50/41/3 56/89/3 57/90/3 53/40/3 

v 12.1 2.5 -0
v 12.1 0 -0
f 56/89/3 58/12/3 59/8/3 57/90/3 

v 12 2.5 -0
f 54/85/1 60/53/1 58/81/1 56/86/1 

vt -472.441 -3.55271e-012
vn -1.26086e-028 -1 3.60956e-014
v 1.7969 2.5 -0.01
vt -70.7443 0.393701
vt -476.378 -3.55271e-012
f 60/91/9 61/92/9 58/93/9

v 1.8969 2.5 -0.01
vt -74.6813 0.393701
f 61/92/9 62/94/9 58/93/9

v 1.7969 2.5 -24.2
vt 70.7443 952.756
vn 0 1 1.49217e-017
vt 70.7443 0.393701
vt 74.6813 0.393701
v 1.8969 2.5 -24.1
vt 74.6813 948.819
v 1.8969 2.5 -24.2
vt 74.6813 952.756
f 63/95/10 61/96/10 62/97/10 64/98/10 65/99/10 

vt -0.393701 98.4252
v 1.7969 0 -24.2
v 1.7969 0 -12.105
v 1.7969 0 -0.01
vt -0.393701 0
f 61/100/7 63/45/7 66/48/7 67/84/7 68/101/7 

v 1.8969 0 -24.2
vt -74.6813 0
vt -70.7443 0
vt -70.7443 98.4252
vt -74.6813 98.4252
f 34/63/4 33/64/4 69/102/4 66/103/4 63/104/4 65/105/4 

vn -2.88765e-014 0 -1
vt -334.646 98.4252
vt -334.646 0
f 34/63/11 36/106/11 35/107/11 33/64/11 

v 8.4 2.5 -24.1
vt 330.709 948.819
v 8.5 2.5 -24.1
vt 334.646 948.819
f 70/108/1 71/109/1 36/42/1 34/44/1 

v 1.8969 0 -24.1
vt 74.6813 0
v 8.5 0 -24.1
vt 74.6813 98.4252
f 72/110/6 73/38/6 71/39/6 70/32/6 64/111/6 

vt -334.646 948.819
vt -74.6813 948.819
vt -74.6813 952.756
vt -330.709 952.756
vt -334.646 952.756
f 73/112/2 72/113/2 69/114/2 33/115/2 35/116/2 

vt -70.7443 476.575
vt -70.7443 952.756
v 1.8969 0 -12.105
vt -74.6813 476.575
f 67/117/2 66/118/2 69/114/2 72/113/2 74/119/2 

vt 948.819 98.4252
vt 0.393701 98.4252
v 1.8969 0 -0.01
vt 0.393701 0
vt 948.819 0
f 64/120/3 62/121/3 75/122/3 74/90/3 72/123/3 

vt 74.6808 98.4252
vn -0.000980094 0 1
vt 74.6808 0
f 62/124/12 75/125/12 58/82/12

vt 476.378 -2.08628e-019
vn -0.000980094 -4.4684e-019 1
vt 74.6808 -2.08628e-019
f 59/126/13 58/82/13 75/127/13

f 68/92/2 67/117/2 74/119/2 75/94/2 

vt -948.819 0
vt -948.819 98.4252
f 35/48/7 73/128/7 71/129/7 36/45/7 

f 34/44/1 65/99/1 64/98/1 70/108/1 

vt 1047.24 98.4252
vt 1047.24 0
f 46/130/3 50/41/3 53/40/3 47/131/3 

vt -1023.62 98.4252
vn -1 0 3.75996e-018
vt -1023.62 0
f 12/132/14 45/46/14 44/68/14 6/69/14 7/47/14 1/133/14 

f 13/12/7 12/132/7 1/133/7 9/8/7 

vt -3.93701 98.4252
f 8/8/6 11/12/6 13/134/6 9/14/6 

vn 0.900694 0 -0.434455
v 2.93257 2.5 6.07968
vt -265.748 98.4252
v 2.93257 0 6.07968
vt -265.748 0
f 11/12/15 76/135/15 77/136/15 8/8/15 

vt 115.456 -239.358
v -0.0900694 2.5 0.0434455
vt -3.54604 -1.71045
v 2.8425 2.5 6.12313
vt 111.91 -241.068
f 76/137/1 11/8/1 78/138/1 79/139/1 

vn -0.434455 0 -0.900694
v -0.0900694 0 0.0434455
f 11/12/16 8/8/16 80/9/16 78/15/16 

vt -115.456 -239.358
v 2.8425 0 6.12313
vt -111.91 -241.068
vt 3.54604 -1.71045
f 8/8/2 77/140/2 81/141/2 80/142/2 

vt -1.42109e-014 0
vn 0.434455 0 0.900694
vt -1.42109e-014 98.4252
f 77/143/17 76/144/17 79/134/17 81/14/17 

vt 265.748 98.4252
vn -0.900694 0 0.434455
vt -4.44089e-016 98.4252
vt -4.44089e-016 0
vt 265.748 0
f 79/145/18 78/146/18 80/147/18 81/148/18 

vn 1 0 -6.01593e-016
f 10/11/19 2/13/19 3/24/19 18/23/19 

vt -1.23398e-012 98.4252
vn -1.20319e-015 0 -1
vt -185.039 98.4252
v 4.7 0 -26.1
vt -185.039 0
vt -1.23398e-012 0
f 18/149/20 17/150/20 82/151/20 3/152/20 

vt -1027.56 98.4252
vt -1027.56 0
f 17/153/7 22/46/7 26/47/7 82/154/7 

f 7/14/6 4/8/6 25/12/6 45/134/6 

