# 3ds Max Wavefront OBJ Exporter v0.97b - (c)2007 guruware
# File Created: 24.04.2015 16:04:25

mtllib residential_building_01.mtl

#
# object Shops_A_01
#

v  0.0000 -6.4000 0.0000
v  0.0000 -19.2000 0.0000
v  -16.0000 -19.2000 0.0000
v  -16.0000 -6.4000 0.0000
v  16.0000 -6.4000 0.0000
v  16.0000 -19.2000 0.0000
v  0.0000 6.4000 0.0000
v  -16.0000 6.4000 0.0000
v  16.0000 6.4000 0.0000
v  0.0000 19.2000 0.0000
v  -16.0000 19.2000 0.0000
v  16.0000 19.2000 0.0000
v  0.0000 -4.8106 40.7672
v  -12.0264 -4.8106 40.7672
v  -12.0264 -14.4317 40.7672
v  0.0000 -14.4317 40.7672
v  12.0264 -4.8106 40.7672
v  12.0264 -14.4317 40.7672
v  0.0000 4.8106 40.7672
v  -12.0264 4.8106 40.7672
v  12.0264 4.8106 40.7672
v  0.0000 14.4317 40.7672
v  -12.0264 14.4317 40.7672
v  12.0264 14.4317 40.7672
v  0.0000 -19.2000 6.0000
v  -16.0000 -19.2000 6.0000
v  16.0000 -19.2000 6.0000
v  0.0000 -19.2000 16.0000
v  -16.0000 -19.2000 16.0000
v  16.0000 -19.2000 16.0000
v  0.0000 -19.2000 26.0000
v  -16.0000 -19.2000 26.0000
v  16.0000 -19.2000 26.0000
v  0.0000 -19.2000 33.9877
v  -16.0000 -19.2000 33.9877
v  16.0000 -19.2000 33.9877
v  16.0000 -6.4000 6.0000
v  16.0000 6.4000 6.0000
v  16.0000 19.2000 6.0000
v  16.0000 -6.4000 16.0000
v  16.0000 6.4000 16.0000
v  16.0000 19.2000 16.0000
v  16.0000 -6.4000 26.0000
v  16.0000 6.4000 26.0000
v  16.0000 19.2000 26.0000
v  16.0000 -6.4000 33.9877
v  16.0000 6.4000 33.9877
v  16.0000 19.2000 33.9877
v  0.0000 19.2000 6.0000
v  -16.0000 19.2000 6.0000
v  0.0000 19.2000 16.0000
v  -16.0000 19.2000 16.0000
v  0.0000 19.2000 26.0000
v  -16.0000 19.2000 26.0000
v  0.0000 19.2000 33.9877
v  -16.0000 19.2000 33.9877
v  -16.0000 6.4000 6.0000
v  -16.0000 -6.4000 6.0000
v  -16.0000 6.4000 16.0000
v  -16.0000 -6.4000 16.0000
v  -16.0000 6.4000 26.0000
v  -16.0000 -6.4000 26.0000
v  -16.0000 6.4000 33.9877
v  -16.0000 -6.4000 33.9877
v  0.0000 -15.7500 43.0650
v  -13.1250 -15.7500 43.0650
v  -16.9784 -20.3740 36.0000
v  0.0000 -20.3740 36.0000
v  -13.1250 -5.2500 43.0650
v  -16.9784 -6.7913 36.0000
v  13.1250 -15.7500 43.0650
v  16.9784 -20.3740 36.0000
v  13.1250 -5.2500 43.0650
v  16.9784 -6.7913 36.0000
v  -13.1250 5.2500 43.0650
v  -16.9784 6.7913 36.0000
v  13.1250 5.2500 43.0650
v  16.9784 6.7913 36.0000
v  -13.1250 15.7500 43.0650
v  0.0000 15.7500 43.0650
v  0.0000 20.3740 36.0000
v  -16.9784 20.3740 36.0000
v  13.1250 15.7500 43.0650
v  16.9784 20.3740 36.0000
v  0.0000 -14.4317 43.0672
v  -12.0264 -14.4317 43.0672
v  -12.0264 -4.8106 43.0672
v  12.0264 -14.4317 43.0672
v  12.0264 -4.8106 43.0672
v  -12.0264 4.8106 43.0672
v  12.0264 4.8106 43.0672
v  -12.0264 14.4317 43.0672
v  0.0000 14.4317 43.0672
v  12.0264 14.4317 43.0672
v  0.0000 -20.3740 34.5919
v  -16.9784 -20.3740 34.5919
v  16.9784 -20.3740 34.5919
v  16.9784 -6.7913 34.5919
v  16.9784 6.7913 34.5919
v  16.9784 20.3740 34.5919
v  0.0000 20.3740 34.5919
v  -16.9784 20.3740 34.5919
v  -16.9784 6.7913 34.5919
v  -16.9784 -6.7913 34.5919
v  17.4441 19.7440 25.5669
v  17.4441 -19.7440 25.5669
v  -17.4441 -19.7440 25.5669
v  -17.4441 19.7440 25.5669
v  17.4441 19.7440 27.7570
v  -17.4441 19.7440 27.7570
v  -17.4441 -19.7440 27.7570
v  17.4441 -19.7440 27.7570
v  17.4441 19.7440 5.9176
v  17.4441 -19.7440 5.9176
v  -17.4441 -19.7440 5.9176
v  -17.4441 19.7440 5.9176
v  17.4441 19.7440 7.4326
v  -17.4441 19.7440 7.4326
v  -17.4441 -19.7440 7.4326
v  17.4441 -19.7440 7.4326
v  3.2175 -2.1068 40.3920
v  8.2930 -2.1068 40.3920
v  8.2930 -8.1620 40.3920
v  3.2175 -8.1620 40.3920
v  2.7516 -1.8875 43.9392
v  2.7516 -8.3813 43.9392
v  8.7589 -8.3813 43.9392
v  8.7589 -1.8875 43.9392
v  8.2930 -2.1068 43.0812
v  8.2930 -8.1620 43.0812
v  3.2175 -2.1068 43.0812
v  3.2175 -8.1620 43.0812
v  8.7589 -1.8875 43.4280
v  8.7589 -8.3813 43.4280
v  2.7516 -1.8875 43.4280
v  2.7516 -8.3813 43.4280
v  7.3279 13.2576 40.6632
v  9.3900 13.2576 40.6632
v  9.3900 11.3200 40.6632
v  7.3279 11.3200 40.6632
v  7.1386 13.3278 48.3023
v  7.1386 11.2498 48.3023
v  9.5793 11.2498 48.3023
v  9.5793 13.3278 48.3023
v  9.3900 13.2576 47.0698
v  9.3900 11.3200 47.0698
v  7.3279 13.2576 47.0698
v  7.3279 11.3200 47.0698
v  9.5793 13.3278 47.5681
v  9.5793 11.2498 47.5681
v  7.1386 13.3278 47.5681
v  7.1386 11.2498 47.5681
v  3.6277 13.2576 40.6632
v  5.6898 13.2576 40.6632
v  5.6898 11.3200 40.6632
v  3.6277 11.3200 40.6632
v  3.4384 13.3278 48.3023
v  3.4384 11.2498 48.3023
v  5.8791 11.2498 48.3023
v  5.8791 13.3278 48.3023
v  5.6898 13.2576 47.0698
v  5.6898 11.3200 47.0698
v  3.6277 13.2576 47.0698
v  3.6277 11.3200 47.0698
v  5.8791 13.3278 47.5681
v  5.8791 11.2498 47.5681
v  3.4384 13.3278 47.5681
v  3.4384 11.2498 47.5681
# 168 vertices

vn 0.0000 0.0000 -1.0000
vn 0.0000 0.0000 1.0000
vn 0.0000 -1.0000 0.0000
vn 0.0000 -1.0000 -0.0000
vn 0.0000 -0.9043 -0.4268
vn 0.0000 -0.8762 -0.4820
vn 1.0000 0.0000 0.0000
vn 0.9427 0.0000 -0.3337
vn 0.9176 0.0000 -0.3976
vn 0.0000 1.0000 0.0000
vn 0.0000 1.0000 -0.0000
vn 0.0000 0.9043 -0.4268
vn 0.0000 0.8762 -0.4820
vn -1.0000 0.0000 0.0000
vn -0.9427 0.0000 -0.3337
vn -0.9176 0.0000 -0.3976
vn 0.0000 -0.9256 0.3786
vn -0.9648 0.0000 0.2631
vn 0.9648 0.0000 0.2631
vn 0.0000 0.9256 0.3786
vn 0.0000 -0.0026 1.0000
vn -0.0039 0.0000 1.0000
vn 0.0039 0.0000 1.0000
vn 0.0000 0.0026 1.0000
vn 0.0000 -0.9369 -0.3495
vn 0.9740 0.0000 -0.2265
vn 0.0000 0.9369 -0.3495
vn -0.9740 0.0000 -0.2265
vn 0.9481 0.0000 -0.3180
vn 0.0000 0.9766 -0.2152
vn -0.0000 0.9766 -0.2152
vn -1.0000 -0.0000 0.0000
vn -0.9481 -0.0000 -0.3180
vn 0.0000 -0.9766 -0.2152
vn 0.9660 0.0000 -0.2586
vn -0.0000 0.9892 -0.1465
vn -0.9660 -0.0000 -0.2586
vn 0.0000 -0.9892 -0.1465
vn -0.0000 1.0000 0.0000
vn 0.9954 0.0000 -0.0962
vn 0.0000 0.9989 -0.0464
vn -0.0000 0.9989 -0.0464
vn -0.9954 0.0000 -0.0962
vn 0.0000 -0.9989 -0.0464
vn 0.9958 0.0000 -0.0911
vn -0.0000 0.9992 -0.0411
vn -0.9958 0.0000 -0.0911
vn 0.0000 -0.9992 -0.0411
# 48 vertex normals

vt 0.5000 0.0005 0.6665
vt 0.5000 0.0005 0.9995
vt 0.0005 0.0005 0.9995
vt 0.0005 0.0005 0.6665
vt 0.9995 0.0005 0.6665
vt 0.9995 0.0005 0.9995
vt 0.5000 0.6667 0.0000
vt 0.5000 0.3333 0.0000
vt 1.0000 0.3333 0.0000
vt 1.0000 0.6667 0.0000
vt 0.0000 0.6667 0.0000
vt 0.0000 0.3333 0.0000
vt 0.5000 1.0000 0.0000
vt 1.0000 1.0000 0.0000
vt 0.0000 1.0000 0.0000
vt 0.5000 0.0103 0.5000
vt -0.4990 0.0103 0.5000
vt -0.4990 -0.9691 0.5000
vt 0.5000 -0.9691 0.5000
vt 1.4990 0.0103 0.5000
vt 1.4990 -0.9691 0.5000
vt 0.5000 0.9897 0.5000
vt -0.4990 0.9897 0.5000
vt 1.4990 0.9897 0.5000
vt 0.5000 1.9691 0.5000
vt -0.4990 1.9691 0.5000
vt 1.4990 1.9691 0.5000
vt 0.5000 0.9995 0.9995
vt 0.0005 0.9995 0.9995
vt 0.9995 0.9995 0.9995
vt 0.3560 0.3335 0.9995
vt 0.0005 0.3335 0.9995
vt 0.0005 -0.0567 0.9995
vt 0.3560 -0.0567 0.9995
vt 0.6451 0.3335 0.9995
vt 0.6451 -0.0567 0.9995
vt 0.3560 0.6665 0.9995
vt 0.0005 0.6665 0.9995
vt 0.6451 0.6665 0.9995
vt 0.3560 0.9325 0.9995
vt 0.0005 0.9325 0.9995
vt 0.6451 0.9325 0.9995
vt 0.6665 0.9995 0.0005
vt 0.9995 0.9995 0.0005
vt 0.9995 0.0005 0.0005
vt 0.6665 0.0005 0.0005
vt 0.3335 0.9995 0.0005
vt 0.3335 0.0005 0.0005
vt 0.0005 0.9995 0.0005
vt 0.0005 0.0005 0.0005
vt 0.6665 0.3335 0.0005
vt 0.9995 0.3335 0.0005
vt 0.9995 -0.0567 0.0005
vt 0.6665 -0.0567 0.0005
vt 0.3335 0.3335 0.0005
vt 0.3335 -0.0567 0.0005
vt 0.0005 0.3335 0.0005
vt 0.0005 -0.0567 0.0005
vt 0.6665 0.6665 0.0005
vt 0.9995 0.6665 0.0005
vt 0.3335 0.6665 0.0005
vt 0.0005 0.6665 0.0005
vt 0.6665 0.9325 0.0005
vt 0.9995 0.9325 0.0005
vt 0.3335 0.9325 0.0005
vt 0.0005 0.9325 0.0005
vt 0.5000 0.9995 0.0005
vt 0.5000 0.0005 0.0005
vt 0.3560 0.3335 0.0005
vt 0.6451 0.3335 0.0005
vt 0.6451 -0.0567 0.0005
vt 0.3560 -0.0567 0.0005
vt 0.3560 0.6665 0.0005
vt 0.6451 0.6665 0.0005
vt 0.3560 0.9325 0.0005
vt 0.6451 0.9325 0.0005
vt 0.3335 0.9995 0.9995
vt 0.3335 0.0005 0.9995
vt 0.6665 0.9995 0.9995
vt 0.6665 0.0005 0.9995
vt 0.3335 0.3335 0.9995
vt 0.3335 -0.0567 0.9995
vt 0.6665 0.3335 0.9995
vt 0.6665 -0.0567 0.9995
vt 0.9995 0.3335 0.9995
vt 0.9995 -0.0567 0.9995
vt 0.3335 0.6665 0.9995
vt 0.6665 0.6665 0.9995
vt 0.9995 0.6665 0.9995
vt 0.3335 0.9325 0.9995
vt 0.6665 0.9325 0.9995
vt 0.9995 0.9325 0.9995
vt 0.5000 0.9995 1.0075
vt 0.0913 0.9995 1.0075
vt -0.0287 0.0005 1.1565
vt 0.5000 0.0005 1.1565
vt 1.0075 0.9995 0.0913
vt 0.6692 0.9995 0.0913
vt 0.7188 0.0005 -0.0287
vt 1.1565 0.0005 -0.0287
vt 0.9087 0.9995 1.0075
vt 1.0287 0.0005 1.1565
vt 0.3308 0.9995 0.9087
vt -0.0075 0.9995 0.9087
vt -0.1565 0.0005 1.0287
vt 0.2812 0.0005 1.0287
vt 0.3308 0.9995 0.0913
vt 0.2812 0.0005 -0.0287
vt 0.6692 0.9995 0.9087
vt 0.7188 0.0005 1.0287
vt 0.9087 0.9995 -0.0075
vt 0.5000 0.9995 -0.0075
vt 0.5000 0.0005 -0.1565
vt 1.0287 0.0005 -0.1565
vt -0.0075 0.9995 0.0913
vt -0.1565 0.0005 -0.0287
vt 1.0075 0.9995 0.9087
vt 1.1565 0.0005 1.0287
vt 0.0913 0.9995 -0.0075
vt -0.0287 0.0005 -0.1565
vt 0.5000 -0.0094 0.0100
vt 0.0423 -0.0094 0.0100
vt 0.0005 -0.0512 0.0099
vt 0.5000 -0.0512 0.0099
vt 1.0094 -0.0131 0.0100
vt 0.6526 -0.0131 0.0100
vt 0.6665 -0.0549 0.0099
vt 1.0512 -0.0549 0.0099
vt 1.0131 -0.0094 0.0100
vt 1.0549 -0.0512 0.0099
vt 0.6526 0.9577 0.0100
vt 1.0094 0.9577 0.0100
vt 1.0512 0.9995 0.0099
vt 0.6665 0.9995 0.0099
vt 0.3474 -0.0131 0.0100
vt 0.3335 -0.0549 0.0099
vt 0.3474 0.9577 0.0100
vt 0.3335 0.9995 0.0099
vt 0.0423 0.9540 0.0100
vt 0.5000 0.9540 0.0100
vt 0.5000 0.9958 0.0099
vt 0.0005 0.9958 0.0099
vt 0.0460 -0.0131 0.0100
vt 0.0042 -0.0549 0.0099
vt 0.0460 0.9577 0.0100
vt 0.0042 0.9995 0.0099
vt 1.0131 0.9540 0.0100
vt 1.0549 0.9958 0.0099
vt 0.5000 -0.0752 0.0423
vt 0.9577 -0.0752 0.0423
vt 0.9577 0.0100 0.0423
vt 0.5000 0.0100 0.0423
vt 0.0423 -0.0752 0.0423
vt 0.3474 -0.0752 0.0423
vt 0.3474 0.0100 0.0423
vt 0.0423 0.0100 0.0423
vt 0.6526 -0.0752 0.9577
vt 0.9577 -0.0752 0.9577
vt 0.9577 0.0100 0.9577
vt 0.6526 0.0100 0.9577
vt 0.6526 -0.0752 0.0423
vt 0.6526 0.0100 0.0423
vt 0.3474 -0.0752 0.9577
vt 0.3474 0.0100 0.9577
vt 0.0423 -0.0752 0.9577
vt 0.5000 -0.0752 0.9577
vt 0.5000 0.0100 0.9577
vt 0.0423 0.0100 0.9577
vt 0.3560 0.9526 0.9995
vt 0.0005 0.9526 0.9995
vt 0.6451 0.9526 0.9995
vt 0.6665 0.9526 0.0005
vt 0.9995 0.9526 0.0005
vt 0.3335 0.9526 0.0005
vt 0.0005 0.9526 0.0005
vt 0.3560 0.9526 0.0005
vt 0.6451 0.9526 0.0005
vt 0.3335 0.9526 0.9995
vt 0.6665 0.9526 0.9995
vt 0.9995 0.9526 0.9995
vt 0.3560 0.9995 0.9995
vt 0.6451 0.9995 0.9995
vt 0.3560 0.9995 0.0005
vt 0.6451 0.9995 0.0005
vt 0.0005 -0.0355 0.0005
vt 0.9995 -0.0355 0.0005
vt 0.9995 -0.0355 0.9995
vt 0.0005 -0.0355 0.9995
vt 0.9995 0.7300 0.0005
vt 0.0005 0.7300 0.0005
vt 0.0005 0.6544 0.0005
vt 0.9995 0.6544 0.0005
vt 0.9995 0.7300 0.9995
vt 0.0005 0.7300 0.9995
vt 0.0005 0.6544 0.9995
vt 0.9995 0.6544 0.9995
vt 0.9995 0.0010 0.0005
vt 0.0005 0.0010 0.0005
vt 0.0005 -0.0581 0.0005
vt 0.9995 -0.0581 0.0005
vt 0.9995 0.0010 0.9995
vt 0.0005 0.0010 0.9995
vt 0.0005 -0.0581 0.9995
vt 0.9995 -0.0581 0.9995
vt -1.1113 2.4980 -0.1750
vt -1.1113 -1.4980 -0.1750
vt 2.1113 -1.4980 -0.1750
vt 2.1113 2.4980 -0.1750
vt 2.1113 2.4980 1.1750
vt -1.1113 2.4980 1.1750
vt -1.1113 -1.4980 1.1750
vt 2.1113 -1.4980 1.1750
vt 2.1113 -0.1750 -1.4980
vt 2.1113 0.8021 -1.4980
vt -1.1113 0.8021 -1.4980
vt -1.1113 -0.1750 -1.4980
vt 2.4980 -0.1750 2.1113
vt 2.4980 0.8021 2.1113
vt -1.4980 0.8021 2.1113
vt -1.4980 -0.1750 2.1113
vt 2.1113 -0.1750 2.4980
vt 2.1113 0.8021 2.4980
vt -1.1113 0.8021 2.4980
vt -1.1113 -0.1750 2.4980
vt 2.4980 -0.1750 -1.1113
vt 2.4980 0.8021 -1.1113
vt -1.4980 0.8021 -1.1113
vt -1.4980 -0.1750 -1.1113
vt 2.1113 0.9529 -1.4980
vt -1.1113 0.9529 -1.4980
vt 2.4980 0.9529 2.1113
vt -1.4980 0.9529 2.1113
vt 2.1113 0.9529 2.4980
vt -1.1113 0.9529 2.4980
vt 2.4980 0.9529 -1.1113
vt -1.4980 0.9529 -1.1113
vt 2.1113 1.1750 -1.4980
vt -1.1113 1.1750 -1.4980
vt 2.4980 1.1750 2.1113
vt -1.4980 1.1750 2.1113
vt 2.1113 1.1750 2.4980
vt -1.1113 1.1750 2.4980
vt 2.4980 1.1750 -1.1113
vt -1.4980 1.1750 -1.1113
# 244 texture coords

g Shops_A_01
usemtl Shops_A
s 2
f 1/1/1 2/2/1 3/3/1 
f 3/3/1 4/4/1 1/1/1 
f 5/5/1 6/6/1 2/2/1 
f 2/2/1 1/1/1 5/5/1 
f 7/7/1 1/8/1 4/9/1 
f 4/9/1 8/10/1 7/7/1 
f 9/11/1 5/12/1 1/8/1 
f 1/8/1 7/7/1 9/11/1 
f 10/13/1 7/7/1 8/10/1 
f 8/10/1 11/14/1 10/13/1 
f 12/15/1 9/11/1 7/7/1 
f 7/7/1 10/13/1 12/15/1 
usemtl Roof_A
s 4
f 13/16/2 14/17/2 15/18/2 
f 15/18/2 16/19/2 13/16/2 
f 17/20/2 13/16/2 16/19/2 
f 16/19/2 18/21/2 17/20/2 
f 19/22/2 20/23/2 14/17/2 
f 14/17/2 13/16/2 19/22/2 
f 21/24/2 19/22/2 13/16/2 
f 13/16/2 17/20/2 21/24/2 
f 22/25/2 23/26/2 20/23/2 
f 20/23/2 19/22/2 22/25/2 
f 24/27/2 22/25/2 19/22/2 
f 19/22/2 21/24/2 24/27/2 
usemtl Shops_A
s 8
f 25/28/3 26/29/3 3/3/3 
f 3/3/3 2/2/3 25/28/3 
f 27/30/3 25/28/3 2/2/3 
f 2/2/3 6/6/3 27/30/3 
usemtl Facade_A
f 28/31/4 29/32/4 26/33/3 
f 26/33/3 25/34/3 28/31/4 
f 30/35/4 28/31/4 25/34/3 
f 25/34/3 27/36/3 30/35/4 
f 31/37/4 32/38/4 29/32/4 
f 29/32/4 28/31/4 31/37/4 
f 33/39/3 31/37/4 28/31/4 
f 28/31/4 30/35/4 33/39/3 
f 31/37/4 34/40/5 35/41/6 
f 35/41/6 32/38/4 31/37/4 
f 33/39/3 36/42/6 34/40/5 
f 34/40/5 31/37/4 33/39/3 
usemtl Shops_A
s 16
f 37/43/7 27/44/7 6/45/7 
f 6/45/7 5/46/7 37/43/7 
f 38/47/7 37/43/7 5/46/7 
f 5/46/7 9/48/7 38/47/7 
f 39/49/7 38/47/7 9/48/7 
f 9/48/7 12/50/7 39/49/7 
usemtl Facade_A
f 40/51/7 30/52/7 27/53/7 
f 27/53/7 37/54/7 40/51/7 
f 41/55/7 40/51/7 37/54/7 
f 37/54/7 38/56/7 41/55/7 
f 42/57/7 41/55/7 38/56/7 
f 38/56/7 39/58/7 42/57/7 
f 43/59/7 33/60/7 30/52/7 
f 30/52/7 40/51/7 43/59/7 
f 44/61/7 43/59/7 40/51/7 
f 40/51/7 41/55/7 44/61/7 
f 45/62/7 44/61/7 41/55/7 
f 41/55/7 42/57/7 45/62/7 
f 43/59/7 46/63/8 36/64/9 
f 36/64/9 33/60/7 43/59/7 
f 44/61/7 47/65/8 46/63/8 
f 46/63/8 43/59/7 44/61/7 
f 45/62/7 48/66/9 47/65/8 
f 47/65/8 44/61/7 45/62/7 
usemtl Shops_A
s 32
f 49/67/10 39/44/10 12/45/10 
f 12/45/10 10/68/10 49/67/10 
f 50/49/10 49/67/10 10/68/10 
f 10/68/10 11/50/10 50/49/10 
usemtl Facade_A
f 51/69/10 42/70/10 39/71/10 
f 39/71/10 49/72/10 51/69/10 
f 52/57/10 51/69/10 49/72/10 
f 49/72/10 50/58/10 52/57/10 
f 53/73/11 45/74/11 42/70/10 
f 42/70/10 51/69/10 53/73/11 
f 54/62/11 53/73/11 51/69/10 
f 51/69/10 52/57/10 54/62/11 
f 53/73/11 55/75/12 48/76/13 
f 48/76/13 45/74/11 53/73/11 
f 54/62/11 56/66/13 55/75/12 
f 55/75/12 53/73/11 54/62/11 
usemtl Shops_A
s 64
f 57/77/14 50/29/14 11/3/14 
f 11/3/14 8/78/14 57/77/14 
f 58/79/14 57/77/14 8/78/14 
f 8/78/14 4/80/14 58/79/14 
f 26/30/14 58/79/14 4/80/14 
f 4/80/14 3/6/14 26/30/14 
usemtl Facade_A
f 59/81/14 52/32/14 50/33/14 
f 50/33/14 57/82/14 59/81/14 
f 60/83/14 59/81/14 57/82/14 
f 57/82/14 58/84/14 60/83/14 
f 29/85/14 60/83/14 58/84/14 
f 58/84/14 26/86/14 29/85/14 
f 61/87/14 54/38/14 52/32/14 
f 52/32/14 59/81/14 61/87/14 
f 62/88/14 61/87/14 59/81/14 
f 59/81/14 60/83/14 62/88/14 
f 32/89/14 62/88/14 60/83/14 
f 60/83/14 29/85/14 32/89/14 
f 61/87/14 63/90/15 56/41/16 
f 56/41/16 54/38/14 61/87/14 
f 62/88/14 64/91/15 63/90/15 
f 63/90/15 61/87/14 62/88/14 
f 32/89/14 35/92/16 64/91/15 
f 64/91/15 62/88/14 32/89/14 
usemtl Tiles_A
s off
f 65/93/17 66/94/17 67/95/17 
f 67/95/17 68/96/17 65/93/17 
f 66/97/18 69/98/18 70/99/18 
f 70/99/18 67/100/18 66/97/18 
f 71/101/17 65/93/17 68/96/17 
f 68/96/17 72/102/17 71/101/17 
f 73/103/19 71/104/19 72/105/19 
f 72/105/19 74/106/19 73/103/19 
f 69/98/18 75/107/18 76/108/18 
f 76/108/18 70/99/18 69/98/18 
f 77/109/19 73/103/19 74/106/19 
f 74/106/19 78/110/19 77/109/19 
f 79/111/20 80/112/20 81/113/20 
f 81/113/20 82/114/20 79/111/20 
f 75/107/18 79/115/18 82/116/18 
f 82/116/18 76/108/18 75/107/18 
f 83/117/19 77/109/19 78/110/19 
f 78/110/19 84/118/19 83/117/19 
f 80/112/20 83/119/20 84/120/20 
f 84/120/20 81/113/20 80/112/20 
usemtl Facade_A
f 85/121/21 86/122/21 66/123/21 
f 66/123/21 65/124/21 85/121/21 
f 86/125/22 87/126/22 69/127/22 
f 69/127/22 66/128/22 86/125/22 
f 88/129/21 85/121/21 65/124/21 
f 65/124/21 71/130/21 88/129/21 
f 89/131/23 88/132/23 71/133/23 
f 71/133/23 73/134/23 89/131/23 
f 87/126/22 90/135/22 75/136/22 
f 75/136/22 69/127/22 87/126/22 
f 91/137/23 89/131/23 73/134/23 
f 73/134/23 77/138/23 91/137/23 
f 92/139/24 93/140/24 80/141/24 
f 80/141/24 79/142/24 92/139/24 
f 90/135/22 92/143/22 79/144/22 
f 79/144/22 75/136/22 90/135/22 
f 94/145/23 91/137/23 77/138/23 
f 77/138/23 83/146/23 94/145/23 
f 93/140/24 94/147/24 83/148/24 
f 83/148/24 80/141/24 93/140/24 
f 16/149/10 15/150/10 86/151/10 
f 86/151/10 85/152/10 16/149/10 
f 15/153/7 14/154/7 87/155/7 
f 87/155/7 86/156/7 15/153/7 
f 18/153/10 16/149/10 85/152/10 
f 85/152/10 88/156/10 18/153/10 
f 17/157/14 18/158/14 88/159/14 
f 88/159/14 89/160/14 17/157/14 
f 14/154/7 20/161/7 90/162/7 
f 90/162/7 87/155/7 14/154/7 
f 21/163/14 17/157/14 89/160/14 
f 89/160/14 91/164/14 21/163/14 
f 23/165/3 22/166/3 93/167/3 
f 93/167/3 92/168/3 23/165/3 
f 20/161/7 23/150/7 92/151/7 
f 92/151/7 90/162/7 20/161/7 
f 24/165/14 21/163/14 91/164/14 
f 91/164/14 94/168/14 24/165/14 
f 22/166/3 24/158/3 94/159/3 
f 94/159/3 93/167/3 22/166/3 
s 8
f 95/169/5 96/170/25 35/41/6 
f 35/41/6 34/40/5 95/169/5 
f 97/171/25 95/169/5 34/40/5 
f 34/40/5 36/42/6 97/171/25 
s 16
f 98/172/8 97/173/26 36/64/9 
f 36/64/9 46/63/8 98/172/8 
f 99/174/8 98/172/8 46/63/8 
f 46/63/8 47/65/8 99/174/8 
f 100/175/26 99/174/8 47/65/8 
f 47/65/8 48/66/9 100/175/26 
s 32
f 101/176/12 100/177/27 48/76/13 
f 48/76/13 55/75/12 101/176/12 
f 102/175/27 101/176/12 55/75/12 
f 55/75/12 56/66/13 102/175/27 
s 64
f 103/178/15 102/170/28 56/41/16 
f 56/41/16 63/90/15 103/178/15 
f 104/179/15 103/178/15 63/90/15 
f 63/90/15 64/91/15 104/179/15 
f 96/180/28 104/179/15 64/91/15 
f 64/91/15 35/92/16 96/180/28 
s 8
f 68/181/3 67/29/3 96/170/25 
f 96/170/25 95/169/5 68/181/3 
f 72/182/3 68/181/3 95/169/5 
f 95/169/5 97/171/25 72/182/3 
s 16
f 74/43/7 72/44/7 97/173/26 
f 97/173/26 98/172/8 74/43/7 
f 78/47/7 74/43/7 98/172/8 
f 98/172/8 99/174/8 78/47/7 
f 84/49/7 78/47/7 99/174/8 
f 99/174/8 100/175/26 84/49/7 
s 32
f 81/183/10 84/184/10 100/177/27 
f 100/177/27 101/176/12 81/183/10 
f 82/49/10 81/183/10 101/176/12 
f 101/176/12 102/175/27 82/49/10 
s 64
f 76/77/14 82/29/14 102/170/28 
f 102/170/28 103/178/15 76/77/14 
f 70/79/14 76/77/14 103/178/15 
f 103/178/15 104/179/15 70/79/14 
f 67/30/14 70/79/14 104/179/15 
f 104/179/15 96/180/28 67/30/14 
s 2
f 105/185/1 106/186/1 107/44/1 
f 107/44/1 108/49/1 105/185/1 
s 4
f 109/187/2 110/30/2 111/29/2 
f 111/29/2 112/188/2 109/187/2 
s 8
f 112/189/3 111/190/3 107/191/3 
f 107/191/3 106/192/3 112/189/3 
s 16
f 109/189/7 112/190/7 106/191/7 
f 106/191/7 105/192/7 109/189/7 
s 32
f 110/193/10 109/194/10 105/195/10 
f 105/195/10 108/196/10 110/193/10 
s 64
f 111/193/14 110/194/14 108/195/14 
f 108/195/14 107/196/14 111/193/14 
s 2
f 113/185/1 114/186/1 115/44/1 
f 115/44/1 116/49/1 113/185/1 
s 4
f 117/187/2 118/30/2 119/29/2 
f 119/29/2 120/188/2 117/187/2 
s 8
f 120/197/3 119/198/3 115/199/3 
f 115/199/3 114/200/3 120/197/3 
s 16
f 117/197/7 120/198/7 114/199/7 
f 114/199/7 113/200/7 117/197/7 
s 32
f 118/201/11 117/202/11 113/203/11 
f 113/203/11 116/204/11 118/201/11 
s 64
f 119/201/14 118/202/14 116/203/14 
f 116/203/14 115/204/14 119/201/14 
usemtl Brick_A
s 2
f 121/205/1 122/206/1 123/207/1 
f 123/207/1 124/208/1 121/205/1 
usemtl Roof_A
s 4
f 125/209/2 126/210/2 127/211/2 
f 127/211/2 128/212/2 125/209/2 
usemtl Tiles_A
s 8
f 122/213/7 129/214/29 130/215/29 
f 130/215/29 123/216/7 122/213/7 
s 16
f 121/217/10 131/218/30 129/219/31 
f 129/219/31 122/220/10 121/217/10 
s 32
f 124/221/32 132/222/33 131/223/33 
f 131/223/33 121/224/32 124/221/32 
s 64
f 123/225/3 130/226/34 132/227/34 
f 132/227/34 124/228/3 123/225/3 
s 8
f 133/229/35 134/230/35 130/215/29 
f 130/215/29 129/214/29 133/229/35 
s 16
f 135/231/36 133/232/36 129/219/31 
f 129/219/31 131/218/30 135/231/36 
s 32
f 136/233/37 135/234/37 131/223/33 
f 131/223/33 132/222/33 136/233/37 
s 64
f 134/235/38 136/236/38 132/227/34 
f 132/227/34 130/226/34 134/235/38 
s 8
f 128/237/7 127/238/7 134/230/35 
f 134/230/35 133/229/35 128/237/7 
s 16
f 125/239/39 128/240/39 133/232/36 
f 133/232/36 135/231/36 125/239/39 
s 32
f 126/241/32 125/242/32 135/234/37 
f 135/234/37 136/233/37 126/241/32 
s 64
f 127/243/3 126/244/3 136/236/38 
f 136/236/38 134/235/38 127/243/3 
usemtl Brick_A
s 2
f 137/205/1 138/206/1 139/207/1 
f 139/207/1 140/208/1 137/205/1 
usemtl Roof_A
s 4
f 141/209/2 142/210/2 143/211/2 
f 143/211/2 144/212/2 141/209/2 
usemtl Tiles_A
s 8
f 138/213/7 145/214/40 146/215/40 
f 146/215/40 139/216/7 138/213/7 
s 16
f 137/217/10 147/218/41 145/219/42 
f 145/219/42 138/220/10 137/217/10 
s 32
f 140/221/14 148/222/43 147/223/43 
f 147/223/43 137/224/14 140/221/14 
s 64
f 139/225/3 146/226/44 148/227/44 
f 148/227/44 140/228/3 139/225/3 
s 8
f 149/229/45 150/230/45 146/215/40 
f 146/215/40 145/214/40 149/229/45 
s 16
f 151/231/46 149/232/46 145/219/42 
f 145/219/42 147/218/41 151/231/46 
s 32
f 152/233/47 151/234/47 147/223/43 
f 147/223/43 148/222/43 152/233/47 
s 64
f 150/235/48 152/236/48 148/227/44 
f 148/227/44 146/226/44 150/235/48 
s 8
f 144/237/7 143/238/7 150/230/45 
f 150/230/45 149/229/45 144/237/7 
s 16
f 141/239/39 144/240/39 149/232/46 
f 149/232/46 151/231/46 141/239/39 
s 32
f 142/241/14 141/242/14 151/234/47 
f 151/234/47 152/233/47 142/241/14 
s 64
f 143/243/3 142/244/3 152/236/48 
f 152/236/48 150/235/48 143/243/3 
usemtl Brick_A
s 2
f 153/205/1 154/206/1 155/207/1 
f 155/207/1 156/208/1 153/205/1 
usemtl Roof_A
s 4
f 157/209/2 158/210/2 159/211/2 
f 159/211/2 160/212/2 157/209/2 
usemtl Tiles_A
s 8
f 154/213/7 161/214/40 162/215/40 
f 162/215/40 155/216/7 154/213/7 
s 16
f 153/217/10 163/218/41 161/219/42 
f 161/219/42 154/220/10 153/217/10 
s 32
f 156/221/14 164/222/43 163/223/43 
f 163/223/43 153/224/14 156/221/14 
s 64
f 155/225/3 162/226/44 164/227/44 
f 164/227/44 156/228/3 155/225/3 
s 8
f 165/229/45 166/230/45 162/215/40 
f 162/215/40 161/214/40 165/229/45 
s 16
f 167/231/46 165/232/46 161/219/42 
f 161/219/42 163/218/41 167/231/46 
s 32
f 168/233/47 167/234/47 163/223/43 
f 163/223/43 164/222/43 168/233/47 
s 64
f 166/235/48 168/236/48 164/227/44 
f 164/227/44 162/226/44 166/235/48 
s 8
f 160/237/7 159/238/7 166/230/45 
f 166/230/45 165/229/45 160/237/7 
s 16
f 157/239/39 160/240/39 165/232/46 
f 165/232/46 167/231/46 157/239/39 
s 32
f 158/241/14 157/242/14 167/234/47 
f 167/234/47 168/233/47 158/241/14 
s 64
f 159/243/3 158/244/3 168/236/48 
f 168/236/48 166/235/48 159/243/3 
# 312 faces

