# 3ds Max Wavefront OBJ Exporter v0.97b - (c)2007 guruware
# File Created: 24.04.2015 16:05:10

mtllib residential_building_02.mtl

#
# object Shops_B_02
#

v  -7.2000 0.0000 0.0000
v  -21.6000 0.0000 0.0000
v  -21.6000 16.0000 0.0000
v  -7.2000 16.0000 0.0000
v  -7.2000 -16.0000 0.0000
v  -21.6000 -16.0000 0.0000
v  7.2000 -0.0000 0.0000
v  7.2000 16.0000 0.0000
v  7.2000 -16.0000 0.0000
v  21.6000 -0.0000 0.0000
v  21.6000 16.0000 0.0000
v  21.6000 -16.0000 0.0000
v  -6.3645 0.0000 39.2152
v  -6.3645 14.1433 39.2152
v  -19.0934 14.1433 39.2152
v  -19.0934 0.0000 39.2152
v  -6.3645 -14.1433 39.2152
v  -19.0934 -14.1433 39.2152
v  6.3645 -0.0000 39.2152
v  6.3645 14.1433 39.2152
v  6.3645 -14.1433 39.2152
v  19.0934 -0.0000 39.2152
v  19.0934 14.1433 39.2152
v  19.0934 -14.1433 39.2152
v  -21.6000 0.0000 6.0000
v  -21.6000 16.0000 6.0000
v  -21.6000 -16.0000 6.0000
v  -21.6000 0.0000 16.0000
v  -21.6000 16.0000 16.0000
v  -21.6000 -16.0000 16.0000
v  -21.6000 0.0000 26.0000
v  -21.6000 16.0000 26.0000
v  -21.6000 -16.0000 26.0000
v  -21.6000 0.0000 33.9877
v  -21.6000 16.0000 33.9877
v  -21.6000 -16.0000 33.9877
v  -7.2000 -16.0000 6.0000
v  7.2000 -16.0000 6.0000
v  21.6000 -16.0000 6.0000
v  -7.2000 -16.0000 16.0000
v  7.2000 -16.0000 16.0000
v  21.6000 -16.0000 16.0000
v  -7.2000 -16.0000 26.0000
v  7.2000 -16.0000 26.0000
v  21.6000 -16.0000 26.0000
v  -7.2000 -16.0000 33.9877
v  7.2000 -16.0000 33.9877
v  21.6000 -16.0000 33.9877
v  21.6000 -0.0000 6.0000
v  21.6000 16.0000 6.0000
v  21.6000 -0.0000 16.0000
v  21.6000 16.0000 16.0000
v  21.6000 -0.0000 26.0000
v  21.6000 16.0000 26.0000
v  21.6000 -0.0000 33.9877
v  21.6000 16.0000 33.9877
v  7.2000 16.0000 6.0000
v  -7.2000 16.0000 6.0000
v  7.2000 16.0000 16.0000
v  -7.2000 16.0000 16.0000
v  7.2000 16.0000 26.0000
v  -7.2000 16.0000 26.0000
v  7.2000 16.0000 33.9877
v  -7.2000 16.0000 33.9877
v  -20.8375 0.0000 40.3937
v  -20.8375 15.4352 40.3937
v  -22.9208 16.9784 36.0000
v  -22.9208 0.0000 36.0000
v  -6.9458 15.4352 40.3937
v  -7.6403 16.9784 36.0000
v  -20.8375 -15.4352 40.3937
v  -22.9208 -16.9784 36.0000
v  -6.9458 -15.4352 40.3937
v  -7.6403 -16.9784 36.0000
v  6.9458 15.4352 40.3937
v  7.6403 16.9784 36.0000
v  6.9458 -15.4352 40.3937
v  7.6403 -16.9784 36.0000
v  20.8375 15.4352 40.3937
v  20.8375 -0.0000 40.3937
v  22.9208 -0.0000 36.0000
v  22.9208 16.9784 36.0000
v  20.8375 -15.4352 40.3937
v  22.9208 -16.9784 36.0000
v  -19.0934 0.0000 40.3959
v  -19.0934 14.1433 40.3959
v  -6.3645 14.1433 40.3959
v  -19.0934 -14.1433 40.3959
v  -6.3645 -14.1433 40.3959
v  6.3645 14.1433 40.3959
v  6.3645 -14.1433 40.3959
v  19.0934 14.1433 40.3959
v  19.0934 -0.0000 40.3959
v  19.0934 -14.1433 40.3959
v  -22.9208 0.0000 34.5919
v  -22.9208 16.9784 34.5919
v  -22.9208 -16.9784 34.5919
v  -7.6403 -16.9784 34.5919
v  7.6403 -16.9784 34.5919
v  22.9208 -16.9784 34.5919
v  22.9208 -0.0000 34.5919
v  22.9208 16.9784 34.5919
v  7.6403 16.9784 34.5919
v  -7.6403 16.9784 34.5919
v  21.7837 -16.7909 5.4375
v  -21.7837 -16.7909 5.4375
v  -21.7837 16.7909 5.4375
v  21.7837 16.7909 5.4375
v  21.7837 -16.7909 6.3796
v  21.7837 16.7909 6.3796
v  -21.7837 16.7909 6.3796
v  -21.7837 -16.7909 6.3796
v  22.2120 -17.2542 14.4098
v  -22.2120 -17.2542 14.4098
v  -22.2120 17.6340 14.4098
v  22.2120 17.6340 14.4098
v  22.2120 -17.2542 15.9249
v  22.2120 17.6340 15.9249
v  -22.2120 17.6340 15.9249
v  -22.2120 -17.2542 15.9249
v  22.5913 -17.2865 27.2838
v  -22.5913 -17.2865 27.2838
v  -22.5913 17.2865 27.2838
v  22.5913 17.2865 27.2838
v  22.5913 -17.2865 29.3096
v  22.5913 17.2865 29.3096
v  -22.5913 17.2865 29.3096
v  -22.5913 -17.2865 29.3096
v  1.1684 15.1384 15.6742
v  -1.7952 15.1384 15.6742
v  -1.7952 17.7669 15.6742
v  1.1684 17.7669 15.6742
v  0.1407 15.1384 19.1265
v  0.1407 17.7669 19.1265
v  -0.7656 17.7669 19.1265
v  -0.7656 15.1384 19.1265
# 136 vertices

vn 0.0000 0.0000 -1.0000
vn 0.0000 0.0000 1.0000
vn -1.0000 0.0000 0.0000
vn -1.0000 0.0000 -0.0000
vn -0.9043 -0.0000 -0.4268
vn -0.8762 -0.0000 -0.4820
vn -0.8762 0.0000 -0.4820
vn -0.0000 -1.0000 0.0000
vn -0.0000 -0.9427 -0.3337
vn -0.0000 -0.9176 -0.3976
vn 1.0000 -0.0000 0.0000
vn 1.0000 -0.0000 -0.0000
vn 0.9043 -0.0000 -0.4268
vn 0.8762 -0.0000 -0.4820
vn 0.0000 1.0000 0.0000
vn 0.0000 0.9427 -0.3337
vn 0.0000 0.9176 -0.3976
vn -0.9670 0.0000 0.2547
vn 0.0000 0.9849 0.1730
vn -0.0000 -0.9849 0.1730
vn 0.9670 -0.0000 0.2547
vn -0.0022 0.0000 1.0000
vn 0.0000 0.0033 1.0000
vn -0.0000 -0.0033 1.0000
vn 0.0022 -0.0000 1.0000
vn -0.9369 0.0000 -0.3495
vn -0.0000 -0.9740 -0.2265
vn 0.9369 -0.0000 -0.3495
vn 0.0000 0.9740 -0.2265
vn -1.0000 -0.0000 0.0000
vn -0.0000 0.0000 -1.0000
vn 0.0000 -0.0000 1.0000
vn -0.9866 0.0000 0.1635
vn 0.9866 -0.0000 0.1632
# 34 vertex normals

vt 0.5000 0.0005 0.6665
vt 0.5000 0.0005 0.9995
vt 0.0005 0.0005 0.9995
vt 0.0005 0.0005 0.6665
vt 0.9995 0.0005 0.6665
vt 0.9995 0.0005 0.9995
vt 0.5000 0.6667 0.0000
vt 0.5000 0.3333 0.0000
vt 1.0000 0.3333 0.0000
vt 1.0000 0.6667 0.0000
vt 0.0000 0.6667 0.0000
vt 0.0000 0.3333 0.0000
vt 0.5000 1.0000 0.0000
vt 1.0000 1.0000 0.0000
vt 0.0000 1.0000 0.0000
vt 0.5000 0.0103 0.5000
vt -0.4990 0.0103 0.5000
vt -0.4990 -0.9691 0.5000
vt 0.5000 -0.9691 0.5000
vt 1.4990 0.0103 0.5000
vt 1.4990 -0.9691 0.5000
vt 0.5000 0.9897 0.5000
vt -0.4990 0.9897 0.5000
vt 1.4990 0.9897 0.5000
vt 0.5000 1.9691 0.5000
vt -0.4990 1.9691 0.5000
vt 1.4990 1.9691 0.5000
vt 0.5000 0.9995 0.9995
vt 0.0005 0.9995 0.9995
vt 0.9995 0.9995 0.9995
vt 0.3560 0.3335 0.9995
vt 0.0005 0.3335 0.9995
vt 0.0005 0.0023 0.9995
vt 0.3560 0.0023 0.9995
vt 0.6451 0.3335 0.9995
vt 0.6451 0.0023 0.9995
vt 0.3560 0.6665 0.9995
vt 0.0005 0.6665 0.9995
vt 0.6451 0.6665 0.9995
vt 0.3560 0.8513 0.9995
vt 0.0005 0.8513 0.9995
vt 0.6451 0.8513 0.9995
vt 0.6665 0.9995 0.0005
vt 0.9995 0.9995 0.0005
vt 0.9995 0.0005 0.0005
vt 0.6665 0.0005 0.0005
vt 0.3335 0.9995 0.0005
vt 0.3335 0.0005 0.0005
vt 0.0005 0.9995 0.0005
vt 0.0005 0.0005 0.0005
vt 0.6665 0.3335 0.0005
vt 0.9995 0.3335 0.0005
vt 0.9995 0.0023 0.0005
vt 0.6665 0.0023 0.0005
vt 0.3335 0.3335 0.0005
vt 0.3335 0.0023 0.0005
vt 0.0005 0.3335 0.0005
vt 0.0005 0.0023 0.0005
vt 0.6665 0.6665 0.0005
vt 0.9995 0.6665 0.0005
vt 0.3335 0.6665 0.0005
vt 0.0005 0.6665 0.0005
vt 0.6665 0.8513 0.0005
vt 0.9995 0.8513 0.0005
vt 0.3335 0.8513 0.0005
vt 0.0005 0.8513 0.0005
vt 0.5000 0.9995 0.0005
vt 0.5000 0.0005 0.0005
vt 0.3560 0.3335 0.0005
vt 0.6451 0.3335 0.0005
vt 0.6451 0.0023 0.0005
vt 0.3560 0.0023 0.0005
vt 0.3560 0.6665 0.0005
vt 0.6451 0.6665 0.0005
vt 0.3560 0.8513 0.0005
vt 0.6451 0.8513 0.0005
vt 0.3335 0.9995 0.9995
vt 0.3335 0.0005 0.9995
vt 0.6665 0.9995 0.9995
vt 0.6665 0.0005 0.9995
vt 0.3335 0.3335 0.9995
vt 0.3335 0.0023 0.9995
vt 0.6665 0.3335 0.9995
vt 0.6665 0.0023 0.9995
vt 0.9995 0.3335 0.9995
vt 0.9995 0.0023 0.9995
vt 0.3335 0.6665 0.9995
vt 0.6665 0.6665 0.9995
vt 0.9995 0.6665 0.9995
vt 0.3335 0.8513 0.9995
vt 0.6665 0.8513 0.9995
vt 0.9995 0.8513 0.9995
vt 0.5000 0.9995 1.0075
vt -1.9465 0.9995 1.0075
vt -1.9534 0.0005 1.1565
vt 0.5000 0.0005 1.1565
vt 3.5376 0.9995 0.0913
vt 1.5125 0.9995 0.0913
vt 1.5154 0.0005 -0.0287
vt 3.5461 0.0005 -0.0287
vt 2.9465 0.9995 1.0075
vt 2.9534 0.0005 1.1565
vt -0.5125 0.9995 0.9087
vt -2.5376 0.9995 0.9087
vt -2.5461 0.0005 1.0287
vt -0.5154 0.0005 1.0287
vt -0.5125 0.9995 0.0913
vt -0.5154 0.0005 -0.0287
vt 1.5125 0.9995 0.9087
vt 1.5154 0.0005 1.0287
vt 2.9465 0.9995 -0.0075
vt 0.5000 0.9995 -0.0075
vt 0.5000 0.0005 -0.1565
vt 2.9534 0.0005 -0.1565
vt -2.5376 0.9995 0.0913
vt -2.5461 0.0005 -0.0287
vt 3.5376 0.9995 0.9087
vt 3.5461 0.0005 1.0287
vt -1.9465 0.9995 -0.0075
vt -1.9534 0.0005 -0.1565
vt 0.5000 -0.0094 0.0100
vt 0.0423 -0.0094 0.0100
vt 0.0005 -0.0512 0.0099
vt 0.5000 -0.0512 0.0099
vt 1.0094 -0.0131 0.0100
vt 0.6526 -0.0131 0.0100
vt 0.6665 -0.0549 0.0099
vt 1.0512 -0.0549 0.0099
vt 1.0131 -0.0094 0.0100
vt 1.0549 -0.0512 0.0099
vt 0.6526 0.9577 0.0100
vt 1.0094 0.9577 0.0100
vt 1.0512 0.9995 0.0099
vt 0.6665 0.9995 0.0099
vt 0.3474 -0.0131 0.0100
vt 0.3335 -0.0549 0.0099
vt 0.3474 0.9577 0.0100
vt 0.3335 0.9995 0.0099
vt 0.0423 0.9540 0.0100
vt 0.5000 0.9540 0.0100
vt 0.5000 0.9958 0.0099
vt 0.0005 0.9958 0.0099
vt 0.0460 -0.0131 0.0100
vt 0.0042 -0.0549 0.0099
vt 0.0460 0.9577 0.0100
vt 0.0042 0.9995 0.0099
vt 1.0131 0.9540 0.0100
vt 1.0549 0.9958 0.0099
vt 0.5000 -0.0752 0.0423
vt 0.9577 -0.0752 0.0423
vt 0.9577 0.0100 0.0423
vt 0.5000 0.0100 0.0423
vt 0.0423 -0.0752 0.0423
vt 0.3474 -0.0752 0.0423
vt 0.3474 0.0100 0.0423
vt 0.0423 0.0100 0.0423
vt 0.6526 -0.0752 0.9577
vt 0.9577 -0.0752 0.9577
vt 0.9577 0.0100 0.9577
vt 0.6526 0.0100 0.9577
vt 0.6526 -0.0752 0.0423
vt 0.6526 0.0100 0.0423
vt 0.3474 -0.0752 0.9577
vt 0.3474 0.0100 0.9577
vt 0.0423 -0.0752 0.9577
vt 0.5000 -0.0752 0.9577
vt 0.5000 0.0100 0.9577
vt 0.0423 0.0100 0.9577
vt 0.3560 0.8714 0.9995
vt 0.0005 0.8714 0.9995
vt 0.6451 0.8714 0.9995
vt 0.6665 0.8714 0.0005
vt 0.9995 0.8714 0.0005
vt 0.3335 0.8714 0.0005
vt 0.0005 0.8714 0.0005
vt 0.3560 0.8714 0.0005
vt 0.6451 0.8714 0.0005
vt 0.3335 0.8714 0.9995
vt 0.6665 0.8714 0.9995
vt 0.9995 0.8714 0.9995
vt 0.3560 0.9183 0.9995
vt 0.0005 0.9183 0.9995
vt 0.6451 0.9183 0.9995
vt 0.6665 0.9183 0.0005
vt 0.9995 0.9183 0.0005
vt 0.3335 0.9183 0.0005
vt 0.0005 0.9183 0.0005
vt 0.3560 0.9183 0.0005
vt 0.6451 0.9183 0.0005
vt 0.3335 0.9183 0.9995
vt 0.6665 0.9183 0.9995
vt 0.9995 0.9183 0.9995
vt 0.0005 -0.0355 0.0005
vt 0.9995 -0.0355 0.0005
vt 0.9995 -0.0355 0.9995
vt 0.0005 -0.0355 0.9995
vt 0.9995 0.7300 0.0005
vt 0.0005 0.7300 0.0005
vt 0.0005 0.6544 0.0005
vt 0.9995 0.6544 0.0005
vt 0.9995 0.7300 0.9995
vt 0.0005 0.7300 0.9995
vt 0.0005 0.6544 0.9995
vt 0.9995 0.6544 0.9995
vt 0.9995 -0.6722 0.0005
vt 0.0005 -0.6722 0.0005
vt 0.0005 -0.7312 0.0005
vt 0.9995 -0.7312 0.0005
vt 0.9995 -0.6722 0.9995
vt 0.0005 -0.6722 0.9995
vt 0.0005 -0.7312 0.9995
vt 0.9995 -0.7312 0.9995
vt 0.9995 0.7417 0.0005
vt 0.0005 0.7417 0.0005
vt 0.0005 0.6913 0.0005
vt 0.9995 0.6913 0.0005
vt 0.9995 0.7417 0.9995
vt 0.0005 0.7417 0.9995
vt 0.0005 0.6913 0.9995
vt 0.9995 0.6913 0.9995
vt 0.4807 0.3117 0.0005
vt 0.5331 0.3117 0.0005
vt 0.5197 0.3221 0.9995
vt 0.4891 0.3221 0.9995
vt 0.4933 0.4002 0.0005
vt 0.4978 0.3943 0.9995
vt 0.5124 0.3943 0.9995
vt 0.5204 0.4002 0.0005
# 228 texture coords

g Shops_B_02
usemtl Shops_B
s 2
f 1/1/1 2/2/1 3/3/1 
f 3/3/1 4/4/1 1/1/1 
f 5/5/1 6/6/1 2/2/1 
f 2/2/1 1/1/1 5/5/1 
f 7/7/1 1/8/1 4/9/1 
f 4/9/1 8/10/1 7/7/1 
f 9/11/1 5/12/1 1/8/1 
f 1/8/1 7/7/1 9/11/1 
f 10/13/1 7/7/1 8/10/1 
f 8/10/1 11/14/1 10/13/1 
f 12/15/1 9/11/1 7/7/1 
f 7/7/1 10/13/1 12/15/1 
usemtl Roof_B
s 4
f 13/16/2 14/17/2 15/18/2 
f 15/18/2 16/19/2 13/16/2 
f 17/20/2 13/16/2 16/19/2 
f 16/19/2 18/21/2 17/20/2 
f 19/22/2 20/23/2 14/17/2 
f 14/17/2 13/16/2 19/22/2 
f 21/24/2 19/22/2 13/16/2 
f 13/16/2 17/20/2 21/24/2 
f 22/25/2 23/26/2 20/23/2 
f 20/23/2 19/22/2 22/25/2 
f 24/27/2 22/25/2 19/22/2 
f 19/22/2 21/24/2 24/27/2 
usemtl Shops_B
s 8
f 25/28/3 26/29/3 3/3/3 
f 3/3/3 2/2/3 25/28/3 
f 27/30/3 25/28/3 2/2/3 
f 2/2/3 6/6/3 27/30/3 
usemtl Facade_B
f 28/31/4 29/32/4 26/33/3 
f 26/33/3 25/34/3 28/31/4 
f 30/35/4 28/31/4 25/34/3 
f 25/34/3 27/36/3 30/35/4 
f 31/37/4 32/38/4 29/32/4 
f 29/32/4 28/31/4 31/37/4 
f 33/39/3 31/37/4 28/31/4 
f 28/31/4 30/35/4 33/39/3 
f 31/37/4 34/40/5 35/41/6 
f 35/41/6 32/38/4 31/37/4 
f 33/39/3 36/42/7 34/40/5 
f 34/40/5 31/37/4 33/39/3 
usemtl Shops_B
s 16
f 37/43/8 27/44/8 6/45/8 
f 6/45/8 5/46/8 37/43/8 
f 38/47/8 37/43/8 5/46/8 
f 5/46/8 9/48/8 38/47/8 
f 39/49/8 38/47/8 9/48/8 
f 9/48/8 12/50/8 39/49/8 
usemtl Facade_B
f 40/51/8 30/52/8 27/53/8 
f 27/53/8 37/54/8 40/51/8 
f 41/55/8 40/51/8 37/54/8 
f 37/54/8 38/56/8 41/55/8 
f 42/57/8 41/55/8 38/56/8 
f 38/56/8 39/58/8 42/57/8 
f 43/59/8 33/60/8 30/52/8 
f 30/52/8 40/51/8 43/59/8 
f 44/61/8 43/59/8 40/51/8 
f 40/51/8 41/55/8 44/61/8 
f 45/62/8 44/61/8 41/55/8 
f 41/55/8 42/57/8 45/62/8 
f 43/59/8 46/63/9 36/64/10 
f 36/64/10 33/60/8 43/59/8 
f 44/61/8 47/65/9 46/63/9 
f 46/63/9 43/59/8 44/61/8 
f 45/62/8 48/66/10 47/65/9 
f 47/65/9 44/61/8 45/62/8 
usemtl Shops_B
s 32
f 49/67/11 39/44/11 12/45/11 
f 12/45/11 10/68/11 49/67/11 
f 50/49/11 49/67/11 10/68/11 
f 10/68/11 11/50/11 50/49/11 
usemtl Facade_B
f 51/69/11 42/70/11 39/71/11 
f 39/71/11 49/72/11 51/69/11 
f 52/57/11 51/69/11 49/72/11 
f 49/72/11 50/58/11 52/57/11 
f 53/73/12 45/74/12 42/70/11 
f 42/70/11 51/69/11 53/73/12 
f 54/62/12 53/73/12 51/69/11 
f 51/69/11 52/57/11 54/62/12 
f 53/73/12 55/75/13 48/76/14 
f 48/76/14 45/74/12 53/73/12 
f 54/62/12 56/66/14 55/75/13 
f 55/75/13 53/73/12 54/62/12 
usemtl Shops_B
s 64
f 57/77/15 50/29/15 11/3/15 
f 11/3/15 8/78/15 57/77/15 
f 58/79/15 57/77/15 8/78/15 
f 8/78/15 4/80/15 58/79/15 
f 26/30/15 58/79/15 4/80/15 
f 4/80/15 3/6/15 26/30/15 
usemtl Facade_B
f 59/81/15 52/32/15 50/33/15 
f 50/33/15 57/82/15 59/81/15 
f 60/83/15 59/81/15 57/82/15 
f 57/82/15 58/84/15 60/83/15 
f 29/85/15 60/83/15 58/84/15 
f 58/84/15 26/86/15 29/85/15 
f 61/87/15 54/38/15 52/32/15 
f 52/32/15 59/81/15 61/87/15 
f 62/88/15 61/87/15 59/81/15 
f 59/81/15 60/83/15 62/88/15 
f 32/89/15 62/88/15 60/83/15 
f 60/83/15 29/85/15 32/89/15 
f 61/87/15 63/90/16 56/41/17 
f 56/41/17 54/38/15 61/87/15 
f 62/88/15 64/91/16 63/90/16 
f 63/90/16 61/87/15 62/88/15 
f 32/89/15 35/92/17 64/91/16 
f 64/91/16 62/88/15 32/89/15 
usemtl Tiles_B
s off
f 65/93/18 66/94/18 67/95/18 
f 67/95/18 68/96/18 65/93/18 
f 66/97/19 69/98/19 70/99/19 
f 70/99/19 67/100/19 66/97/19 
f 71/101/18 65/93/18 68/96/18 
f 68/96/18 72/102/18 71/101/18 
f 73/103/20 71/104/20 72/105/20 
f 72/105/20 74/106/20 73/103/20 
f 69/98/19 75/107/19 76/108/19 
f 76/108/19 70/99/19 69/98/19 
f 77/109/20 73/103/20 74/106/20 
f 74/106/20 78/110/20 77/109/20 
f 79/111/21 80/112/21 81/113/21 
f 81/113/21 82/114/21 79/111/21 
f 75/107/19 79/115/19 82/116/19 
f 82/116/19 76/108/19 75/107/19 
f 83/117/20 77/109/20 78/110/20 
f 78/110/20 84/118/20 83/117/20 
f 80/112/21 83/119/21 84/120/21 
f 84/120/21 81/113/21 80/112/21 
usemtl Shops_B
f 85/121/22 86/122/22 66/123/22 
f 66/123/22 65/124/22 85/121/22 
f 86/125/23 87/126/23 69/127/23 
f 69/127/23 66/128/23 86/125/23 
f 88/129/22 85/121/22 65/124/22 
f 65/124/22 71/130/22 88/129/22 
f 89/131/24 88/132/24 71/133/24 
f 71/133/24 73/134/24 89/131/24 
f 87/126/23 90/135/23 75/136/23 
f 75/136/23 69/127/23 87/126/23 
f 91/137/24 89/131/24 73/134/24 
f 73/134/24 77/138/24 91/137/24 
f 92/139/25 93/140/25 80/141/25 
f 80/141/25 79/142/25 92/139/25 
f 90/135/23 92/143/23 79/144/23 
f 79/144/23 75/136/23 90/135/23 
f 94/145/24 91/137/24 77/138/24 
f 77/138/24 83/146/24 94/145/24 
f 93/140/25 94/147/25 83/148/25 
f 83/148/25 80/141/25 93/140/25 
f 16/149/11 15/150/11 86/151/11 
f 86/151/11 85/152/11 16/149/11 
f 15/153/8 14/154/8 87/155/8 
f 87/155/8 86/156/8 15/153/8 
f 18/153/11 16/149/11 85/152/11 
f 85/152/11 88/156/11 18/153/11 
f 17/157/15 18/158/15 88/159/15 
f 88/159/15 89/160/15 17/157/15 
f 14/154/8 20/161/8 90/162/8 
f 90/162/8 87/155/8 14/154/8 
f 21/163/15 17/157/15 89/160/15 
f 89/160/15 91/164/15 21/163/15 
f 23/165/3 22/166/3 93/167/3 
f 93/167/3 92/168/3 23/165/3 
f 20/161/8 23/150/8 92/151/8 
f 92/151/8 90/162/8 20/161/8 
f 24/165/15 21/163/15 91/164/15 
f 91/164/15 94/168/15 24/165/15 
f 22/166/3 24/158/3 94/159/3 
f 94/159/3 93/167/3 22/166/3 
usemtl Facade_B
s 8
f 95/169/5 96/170/26 35/41/6 
f 35/41/6 34/40/5 95/169/5 
f 97/171/26 95/169/5 34/40/5 
f 34/40/5 36/42/7 97/171/26 
s 16
f 98/172/9 97/173/27 36/64/10 
f 36/64/10 46/63/9 98/172/9 
f 99/174/9 98/172/9 46/63/9 
f 46/63/9 47/65/9 99/174/9 
f 100/175/27 99/174/9 47/65/9 
f 47/65/9 48/66/10 100/175/27 
s 32
f 101/176/13 100/177/28 48/76/14 
f 48/76/14 55/75/13 101/176/13 
f 102/175/28 101/176/13 55/75/13 
f 55/75/13 56/66/14 102/175/28 
s 64
f 103/178/16 102/170/29 56/41/17 
f 56/41/17 63/90/16 103/178/16 
f 104/179/16 103/178/16 63/90/16 
f 63/90/16 64/91/16 104/179/16 
f 96/180/29 104/179/16 64/91/16 
f 64/91/16 35/92/17 96/180/29 
s 8
f 68/181/30 67/182/3 96/170/26 
f 96/170/26 95/169/5 68/181/30 
f 72/183/3 68/181/30 95/169/5 
f 95/169/5 97/171/26 72/183/3 
s 16
f 74/184/8 72/185/8 97/173/27 
f 97/173/27 98/172/9 74/184/8 
f 78/186/8 74/184/8 98/172/9 
f 98/172/9 99/174/9 78/186/8 
f 84/187/8 78/186/8 99/174/9 
f 99/174/9 100/175/27 84/187/8 
s 32
f 81/188/11 84/189/11 100/177/28 
f 100/177/28 101/176/13 81/188/11 
f 82/187/11 81/188/11 101/176/13 
f 101/176/13 102/175/28 82/187/11 
s 64
f 76/190/15 82/182/15 102/170/29 
f 102/170/29 103/178/16 76/190/15 
f 70/191/15 76/190/15 103/178/16 
f 103/178/16 104/179/16 70/191/15 
f 67/192/15 70/191/15 104/179/16 
f 104/179/16 96/180/29 67/192/15 
s 2
f 105/193/1 106/194/1 107/44/1 
f 107/44/1 108/49/1 105/193/1 
s 4
f 109/195/2 110/30/2 111/29/2 
f 111/29/2 112/196/2 109/195/2 
s 8
f 112/197/3 111/198/3 107/199/3 
f 107/199/3 106/200/3 112/197/3 
s 16
f 109/197/8 112/198/8 106/199/8 
f 106/199/8 105/200/8 109/197/8 
s 32
f 110/201/11 109/202/11 105/203/11 
f 105/203/11 108/204/11 110/201/11 
s 64
f 111/201/15 110/202/15 108/203/15 
f 108/203/15 107/204/15 111/201/15 
s 2
f 113/193/31 114/194/31 115/44/31 
f 115/44/31 116/49/31 113/193/31 
s 4
f 117/195/2 118/30/2 119/29/2 
f 119/29/2 120/196/2 117/195/2 
s 8
f 120/205/3 119/206/3 115/207/3 
f 115/207/3 114/208/3 120/205/3 
s 16
f 117/205/8 120/206/8 114/207/8 
f 114/207/8 113/208/8 117/205/8 
s 32
f 118/209/12 117/210/12 113/211/12 
f 113/211/12 116/212/12 118/209/12 
s 64
f 119/209/15 118/210/15 116/211/15 
f 116/211/15 115/212/15 119/209/15 
s 2
f 121/193/31 122/194/31 123/44/31 
f 123/44/31 124/49/31 121/193/31 
s 4
f 125/195/32 126/30/32 127/29/32 
f 127/29/32 128/196/32 125/195/32 
s 8
f 128/213/3 127/214/3 123/215/3 
f 123/215/3 122/216/3 128/213/3 
s 16
f 125/213/8 128/214/8 122/215/8 
f 122/215/8 121/216/8 125/213/8 
s 32
f 126/217/11 125/218/11 121/219/11 
f 121/219/11 124/220/11 126/217/11 
s 64
f 127/217/15 126/218/15 124/219/15 
f 124/219/15 123/220/15 127/217/15 
s 2
f 129/221/1 130/222/1 131/223/1 
f 131/223/1 132/224/1 129/221/1 
s 4
f 133/225/2 134/226/2 135/227/2 
f 135/227/2 136/228/2 133/225/2 
s 8
f 136/228/33 135/227/33 131/223/33 
f 131/223/33 130/222/33 136/228/33 
s 16
f 133/225/8 136/228/8 130/222/8 
f 130/222/8 129/221/8 133/225/8 
s 32
f 134/226/34 133/225/34 129/221/34 
f 129/221/34 132/224/34 134/226/34 
s 64
f 135/227/15 134/226/15 132/224/15 
f 132/224/15 131/223/15 135/227/15 
# 252 faces

