# 3ds Max Wavefront OBJ Exporter v0.97b - (c)2007 guruware
# File Created: 24.04.2015 16:05:33

mtllib residential_building_03.mtl

#
# object Shops_C_03
#

v  0.0000 -8.0000 0.0000
v  0.0000 -24.0000 0.0000
v  -16.0000 -24.0000 0.0000
v  -16.0000 -8.0000 0.0000
v  16.0000 -8.0000 0.0000
v  16.0000 -24.0000 0.0000
v  0.0000 8.0000 0.0000
v  -16.0000 8.0000 0.0000
v  16.0000 8.0000 0.0000
v  0.0000 24.0000 0.0000
v  -16.0000 24.0000 0.0000
v  16.0000 24.0000 0.0000
v  0.0000 -7.0315 41.6899
v  -14.0631 -7.0315 41.6899
v  -14.0631 -21.0946 41.6899
v  0.0000 -21.0946 41.6899
v  14.0631 -7.0315 41.6899
v  14.0631 -21.0946 41.6899
v  0.0000 7.0315 41.6899
v  -14.0631 7.0315 41.6899
v  14.0631 7.0315 41.6899
v  0.0000 21.0946 41.6899
v  -14.0631 21.0946 41.6899
v  14.0631 21.0946 41.6899
v  0.0000 -24.0000 9.5940
v  -16.0000 -24.0000 9.5940
v  16.0000 -24.0000 9.5940
v  0.0000 -24.0000 19.5940
v  -16.0000 -24.0000 19.5940
v  16.0000 -24.0000 19.5940
v  0.0000 -24.0000 29.5940
v  -16.0000 -24.0000 29.5940
v  16.0000 -24.0000 29.5940
v  0.0000 -24.0000 37.5817
v  -16.0000 -24.0000 37.5817
v  16.0000 -24.0000 37.5817
v  16.0000 -8.0000 9.5940
v  16.0000 8.0000 9.5940
v  16.0000 24.0000 9.5940
v  16.0000 -8.0000 19.5940
v  16.0000 8.0000 19.5940
v  16.0000 24.0000 19.5940
v  16.0000 -8.0000 29.5940
v  16.0000 8.0000 29.5940
v  16.0000 24.0000 29.5940
v  16.0000 -8.0000 37.5817
v  16.0000 8.0000 37.5817
v  16.0000 24.0000 37.5817
v  0.0000 24.0000 9.5940
v  -16.0000 24.0000 9.5940
v  0.0000 24.0000 19.5940
v  -16.0000 24.0000 19.5940
v  0.0000 24.0000 29.5940
v  -16.0000 24.0000 29.5940
v  0.0000 24.0000 37.5817
v  -16.0000 24.0000 37.5817
v  -16.0000 8.0000 9.5940
v  -16.0000 -8.0000 9.5940
v  -16.0000 8.0000 19.5940
v  -16.0000 -8.0000 19.5940
v  -16.0000 8.0000 29.5940
v  -16.0000 -8.0000 29.5940
v  -16.0000 8.0000 37.5817
v  -16.0000 -8.0000 37.5817
v  0.0000 -23.0215 42.4751
v  -15.3477 -23.0215 42.4751
v  -16.0113 -24.0170 39.5940
v  0.0000 -24.0170 39.5940
v  -15.3477 -7.6738 42.4751
v  -16.0113 -8.0057 39.5940
v  15.3477 -23.0215 42.4751
v  16.0113 -24.0170 39.5940
v  15.3477 -7.6738 42.4751
v  16.0113 -8.0057 39.5940
v  -15.3477 7.6738 42.4751
v  -16.0113 8.0057 39.5940
v  15.3477 7.6738 42.4751
v  16.0113 8.0057 39.5940
v  -15.3477 23.0215 42.4751
v  0.0000 23.0215 42.4751
v  0.0000 24.0170 39.5940
v  -16.0113 24.0170 39.5940
v  15.3477 23.0215 42.4751
v  16.0113 24.0170 39.5940
v  0.0000 -21.0946 42.4773
v  -14.0631 -21.0946 42.4773
v  -14.0631 -7.0315 42.4773
v  14.0631 -21.0946 42.4773
v  14.0631 -7.0315 42.4773
v  -14.0631 7.0315 42.4773
v  14.0631 7.0315 42.4773
v  -14.0631 21.0946 42.4773
v  0.0000 21.0946 42.4773
v  14.0631 21.0946 42.4773
v  0.0000 -24.0170 38.1860
v  -16.0113 -24.0170 38.1860
v  16.0113 -24.0170 38.1860
v  16.0113 -8.0057 38.1860
v  16.0113 8.0057 38.1860
v  16.0113 24.0170 38.1860
v  0.0000 24.0170 38.1860
v  -16.0113 24.0170 38.1860
v  -16.0113 8.0057 38.1860
v  -16.0113 -8.0057 38.1860
v  17.2542 24.6800 39.4269
v  17.2542 -24.6800 39.4269
v  -17.6340 -24.6800 39.4269
v  -17.6340 24.6800 39.4269
v  17.2542 24.6800 40.9420
v  -17.6340 24.6800 40.9420
v  -17.6340 -24.6800 40.9420
v  17.2542 -24.6800 40.9420
v  17.2542 24.6800 9.1478
v  17.2542 -24.6800 9.1478
v  -17.6340 -24.6800 9.1478
v  -17.6340 24.6800 9.1478
v  17.2542 24.6800 9.8335
v  -17.6340 24.6800 9.8335
v  -17.6340 -24.6800 9.8335
v  17.2542 -24.6800 9.8335
v  12.6873 18.5898 41.6321
v  12.6873 13.5143 41.6321
v  5.1183 13.5143 41.6321
v  5.1183 18.5898 41.6321
v  12.9615 19.0557 45.1792
v  4.8442 19.0557 45.1792
v  4.8442 13.0484 45.1792
v  12.9615 13.0484 45.1792
v  12.6873 13.5143 44.3212
v  5.1183 13.5143 44.3212
v  12.6873 18.5898 44.3212
v  5.1183 18.5898 44.3212
v  12.9615 13.0484 44.6681
v  4.8442 13.0484 44.6681
v  12.9615 19.0557 44.6681
v  4.8442 19.0557 44.6681
# 136 vertices

vn 0.0000 0.0000 -1.0000
vn 0.0000 0.0000 1.0000
vn 0.0000 -1.0000 0.0000
vn 0.0000 -1.0000 -0.0000
vn 0.0000 -1.0000 -0.0070
vn 1.0000 0.0000 0.0000
vn 1.0000 0.0000 -0.0047
vn 0.0000 1.0000 0.0000
vn 0.0000 1.0000 -0.0000
vn 0.0000 1.0000 -0.0070
vn -1.0000 0.0000 0.0000
vn -1.0000 0.0000 -0.0047
vn 0.0000 -0.9854 0.1702
vn -0.9934 0.0000 0.1144
vn 0.9934 0.0000 0.1144
vn 0.0000 0.9854 0.1702
vn 0.0000 -0.0022 1.0000
vn -0.0033 0.0000 1.0000
vn 0.0033 0.0000 1.0000
vn 0.0000 0.0022 1.0000
vn -0.0000 -1.0000 0.0000
vn 0.0000 -0.9481 -0.3180
vn 0.9766 0.0000 -0.2152
vn 0.0000 0.9481 -0.3180
vn -0.9766 0.0000 -0.2152
vn 0.0000 -0.9660 -0.2586
vn 0.9892 0.0000 -0.1465
vn 0.0000 0.9660 -0.2586
vn -0.9892 0.0000 -0.1465
# 29 vertex normals

vt 0.5000 0.0005 0.6665
vt 0.5000 0.0005 0.9995
vt 0.0005 0.0005 0.9995
vt 0.0005 0.0005 0.6665
vt 0.9995 0.0005 0.6665
vt 0.9995 0.0005 0.9995
vt 0.5000 0.6667 0.0000
vt 0.5000 0.3333 0.0000
vt 1.0000 0.3333 0.0000
vt 1.0000 0.6667 0.0000
vt 0.0000 0.6667 0.0000
vt 0.0000 0.3333 0.0000
vt 0.5000 1.0000 0.0000
vt 1.0000 1.0000 0.0000
vt 0.0000 1.0000 0.0000
vt 0.5000 0.0103 0.5000
vt -0.4990 0.0103 0.5000
vt -0.4990 -0.9691 0.5000
vt 0.5000 -0.9691 0.5000
vt 1.4990 0.0103 0.5000
vt 1.4990 -0.9691 0.5000
vt 0.5000 0.9897 0.5000
vt -0.4990 0.9897 0.5000
vt 1.4990 0.9897 0.5000
vt 0.5000 1.9691 0.5000
vt -0.4990 1.9691 0.5000
vt 1.4990 1.9691 0.5000
vt 0.5000 0.9995 0.9995
vt 0.0005 0.9995 0.9995
vt 0.9995 0.9995 0.9995
vt 0.3560 0.3335 0.9995
vt 0.0005 0.3335 0.9995
vt 0.0005 0.0023 0.9995
vt 0.3560 0.0023 0.9995
vt 0.0017 0.3335 0.9995
vt 0.3535 0.3335 0.9995
vt 0.3535 0.0023 0.9995
vt 0.0017 0.0023 0.9995
vt 0.3560 0.6665 0.9995
vt 0.0005 0.6665 0.9995
vt 0.0017 0.6665 0.9995
vt 0.3535 0.6665 0.9995
vt 0.3560 0.9288 0.9995
vt 0.0005 0.9288 0.9995
vt 0.0017 0.9288 0.9995
vt 0.3535 0.9288 0.9995
vt 1.6662 0.9995 0.0005
vt 0.6489 0.9995 0.0005
vt 0.6489 0.0005 0.0005
vt 1.6662 0.0005 0.0005
vt 0.6660 0.9995 0.0005
vt 0.6660 0.0005 0.0005
vt 0.0005 0.9995 0.0005
vt 0.0005 0.0005 0.0005
vt 0.6665 0.3335 0.0005
vt 0.9995 0.3335 0.0005
vt 0.9995 0.0023 0.0005
vt 0.6665 0.0023 0.0005
vt 0.3335 0.3335 0.0005
vt 0.3335 0.0023 0.0005
vt 0.0005 0.3335 0.0005
vt 0.0005 0.0023 0.0005
vt 0.6665 0.6665 0.0005
vt 0.9995 0.6665 0.0005
vt 0.3335 0.6665 0.0005
vt 0.0005 0.6665 0.0005
vt 0.6665 0.9288 0.0005
vt 0.9995 0.9288 0.0005
vt 0.3335 0.9288 0.0005
vt 0.0005 0.9288 0.0005
vt 0.5000 0.9995 0.0005
vt 0.9995 0.9995 0.0005
vt 0.9995 0.0005 0.0005
vt 0.5000 0.0005 0.0005
vt 0.3535 0.3335 0.0005
vt 0.0017 0.3335 0.0005
vt 0.0017 0.0023 0.0005
vt 0.3535 0.0023 0.0005
vt 0.3560 0.3335 0.0005
vt 0.3560 0.0023 0.0005
vt 0.3535 0.6665 0.0005
vt 0.0017 0.6665 0.0005
vt 0.3560 0.6665 0.0005
vt 0.3535 0.9288 0.0005
vt 0.0017 0.9288 0.0005
vt 0.3560 0.9288 0.0005
vt 0.6660 0.9995 0.9995
vt 0.6660 0.0005 0.9995
vt 1.6662 0.9995 0.9995
vt 1.6662 0.0005 0.9995
vt 0.6489 0.9995 0.9995
vt 0.6489 0.0005 0.9995
vt 0.3335 0.3335 0.9995
vt 0.3335 0.0023 0.9995
vt 0.6665 0.3335 0.9995
vt 0.6665 0.0023 0.9995
vt 0.9995 0.3335 0.9995
vt 0.9995 0.0023 0.9995
vt 0.3335 0.6665 0.9995
vt 0.6665 0.6665 0.9995
vt 0.9995 0.6665 0.9995
vt 0.3335 0.9288 0.9995
vt 0.6665 0.9288 0.9995
vt 0.9995 0.9288 0.9995
vt 0.5000 0.9995 1.0075
vt -1.9465 0.9995 1.0075
vt -1.9534 0.0005 1.1565
vt 0.5000 0.0005 1.1565
vt 3.5376 0.9995 0.0913
vt 1.5125 0.9995 0.0913
vt 1.5154 0.0005 -0.0287
vt 3.5461 0.0005 -0.0287
vt 2.9465 0.9995 1.0075
vt 2.9534 0.0005 1.1565
vt -0.5125 0.9995 0.9087
vt -2.5376 0.9995 0.9087
vt -2.5461 0.0005 1.0287
vt -0.5154 0.0005 1.0287
vt -0.5125 0.9995 0.0913
vt -0.5154 0.0005 -0.0287
vt 1.5125 0.9995 0.9087
vt 1.5154 0.0005 1.0287
vt 2.9465 0.9995 -0.0075
vt 0.5000 0.9995 -0.0075
vt 0.5000 0.0005 -0.1565
vt 2.9534 0.0005 -0.1565
vt -2.5376 0.9995 0.0913
vt -2.5461 0.0005 -0.0287
vt 3.5376 0.9995 0.9087
vt 3.5461 0.0005 1.0287
vt -1.9465 0.9995 -0.0075
vt -1.9534 0.0005 -0.1565
vt 0.5000 -0.0094 0.0100
vt 0.0423 -0.0094 0.0100
vt 0.0005 -0.0512 0.0099
vt 0.5000 -0.0512 0.0099
vt 1.0094 -0.0131 0.0100
vt 0.6526 -0.0131 0.0100
vt 0.6665 -0.0549 0.0099
vt 1.0512 -0.0549 0.0099
vt 1.0131 -0.0094 0.0100
vt 1.0549 -0.0512 0.0099
vt 0.6526 0.9577 0.0100
vt 1.0094 0.9577 0.0100
vt 1.0512 0.9995 0.0099
vt 0.6665 0.9995 0.0099
vt 0.3474 -0.0131 0.0100
vt 0.3335 -0.0549 0.0099
vt 0.3474 0.9577 0.0100
vt 0.3335 0.9995 0.0099
vt 0.0423 0.9540 0.0100
vt 0.5000 0.9540 0.0100
vt 0.5000 0.9958 0.0099
vt 0.0005 0.9958 0.0099
vt 0.0460 -0.0131 0.0100
vt 0.0042 -0.0549 0.0099
vt 0.0460 0.9577 0.0100
vt 0.0042 0.9995 0.0099
vt 1.0131 0.9540 0.0100
vt 1.0549 0.9958 0.0099
vt 0.5000 -0.0752 0.0423
vt 0.9577 -0.0752 0.0423
vt 0.9577 0.0100 0.0423
vt 0.5000 0.0100 0.0423
vt 0.0423 -0.0752 0.0423
vt 0.3474 -0.0752 0.0423
vt 0.3474 0.0100 0.0423
vt 0.0423 0.0100 0.0423
vt 0.6526 -0.0752 0.9577
vt 0.9577 -0.0752 0.9577
vt 0.9577 0.0100 0.9577
vt 0.6526 0.0100 0.9577
vt 0.6526 -0.0752 0.0423
vt 0.6526 0.0100 0.0423
vt 0.3474 -0.0752 0.9577
vt 0.3474 0.0100 0.9577
vt 0.0423 -0.0752 0.9577
vt 0.5000 -0.0752 0.9577
vt 0.5000 0.0100 0.9577
vt 0.0423 0.0100 0.9577
vt 0.3560 0.9489 0.9995
vt 0.0005 0.9489 0.9995
vt 0.0017 0.9489 0.9995
vt 0.3535 0.9489 0.9995
vt 0.6665 0.9489 0.0005
vt 0.9995 0.9489 0.0005
vt 0.3335 0.9489 0.0005
vt 0.0005 0.9489 0.0005
vt 0.3535 0.9489 0.0005
vt 0.0017 0.9489 0.0005
vt 0.3560 0.9489 0.0005
vt 0.3335 0.9489 0.9995
vt 0.6665 0.9489 0.9995
vt 0.9995 0.9489 0.9995
vt 0.3560 0.9958 0.9995
vt 0.0005 0.9958 0.9995
vt 0.0017 0.9958 0.9995
vt 0.3535 0.9958 0.9995
vt 0.6665 0.9958 0.0005
vt 0.9995 0.9958 0.0005
vt 0.3335 0.9958 0.0005
vt 0.0005 0.9958 0.0005
vt 0.3535 0.9958 0.0005
vt 0.0017 0.9958 0.0005
vt 0.3560 0.9958 0.0005
vt 0.3335 0.9958 0.9995
vt 0.6665 0.9958 0.9995
vt 0.9995 0.9958 0.9995
vt 0.0005 -0.0355 0.0005
vt 0.9995 -0.0355 0.0005
vt 0.9995 -0.0355 0.9995
vt 0.0005 -0.0355 0.9995
vt 0.9995 -0.6722 0.0005
vt 0.0005 -0.6722 0.0005
vt 0.0005 -0.7312 0.0005
vt 0.9995 -0.7312 0.0005
vt 0.9995 -0.6722 0.9995
vt 0.0005 -0.6722 0.9995
vt 0.0005 -0.7312 0.9995
vt 0.9995 -0.7312 0.9995
vt -1.1113 2.4980 -0.1750
vt -1.1113 -1.4980 -0.1750
vt 2.1113 -1.4980 -0.1750
vt 2.1113 2.4980 -0.1750
vt 2.1113 2.4980 1.1750
vt -1.1113 2.4980 1.1750
vt -1.1113 -1.4980 1.1750
vt 2.1113 -1.4980 1.1750
vt 2.1113 -0.1750 -1.4980
vt 2.1113 0.8021 -1.4980
vt -1.1113 0.8021 -1.4980
vt -1.1113 -0.1750 -1.4980
vt 2.4980 -0.1750 2.1113
vt 2.4980 0.8021 2.1113
vt -1.4980 0.8021 2.1113
vt -1.4980 -0.1750 2.1113
vt 2.1113 -0.1750 2.4980
vt 2.1113 0.8021 2.4980
vt -1.1113 0.8021 2.4980
vt -1.1113 -0.1750 2.4980
vt 2.4980 -0.1750 -1.1113
vt 2.4980 0.8021 -1.1113
vt -1.4980 0.8021 -1.1113
vt -1.4980 -0.1750 -1.1113
vt 2.1113 0.9529 -1.4980
vt -1.1113 0.9529 -1.4980
vt 2.4980 0.9529 2.1113
vt -1.4980 0.9529 2.1113
vt 2.1113 0.9529 2.4980
vt -1.1113 0.9529 2.4980
vt 2.4980 0.9529 -1.1113
vt -1.4980 0.9529 -1.1113
vt 2.1113 1.1750 -1.4980
vt -1.1113 1.1750 -1.4980
vt 2.4980 1.1750 2.1113
vt -1.4980 1.1750 2.1113
vt 2.1113 1.1750 2.4980
vt -1.1113 1.1750 2.4980
vt 2.4980 1.1750 -1.1113
vt -1.4980 1.1750 -1.1113
# 260 texture coords

g Shops_C_03
usemtl Shops_C
s 2
f 1/1/1 2/2/1 3/3/1 
f 3/3/1 4/4/1 1/1/1 
f 5/5/1 6/6/1 2/2/1 
f 2/2/1 1/1/1 5/5/1 
f 7/7/1 1/8/1 4/9/1 
f 4/9/1 8/10/1 7/7/1 
f 9/11/1 5/12/1 1/8/1 
f 1/8/1 7/7/1 9/11/1 
f 10/13/1 7/7/1 8/10/1 
f 8/10/1 11/14/1 10/13/1 
f 12/15/1 9/11/1 7/7/1 
f 7/7/1 10/13/1 12/15/1 
usemtl Roof_C
s 4
f 13/16/2 14/17/2 15/18/2 
f 15/18/2 16/19/2 13/16/2 
f 17/20/2 13/16/2 16/19/2 
f 16/19/2 18/21/2 17/20/2 
f 19/22/2 20/23/2 14/17/2 
f 14/17/2 13/16/2 19/22/2 
f 21/24/2 19/22/2 13/16/2 
f 13/16/2 17/20/2 21/24/2 
f 22/25/2 23/26/2 20/23/2 
f 20/23/2 19/22/2 22/25/2 
f 24/27/2 22/25/2 19/22/2 
f 19/22/2 21/24/2 24/27/2 
usemtl Shops_C
s 8
f 25/28/3 26/29/3 3/3/3 
f 3/3/3 2/2/3 25/28/3 
f 27/30/3 25/28/3 2/2/3 
f 2/2/3 6/6/3 27/30/3 
usemtl Facade_C
f 28/31/4 29/32/4 26/33/3 
f 26/33/3 25/34/3 28/31/4 
f 30/35/4 28/36/4 25/37/3 
f 25/37/3 27/38/3 30/35/4 
f 31/39/4 32/40/4 29/32/4 
f 29/32/4 28/31/4 31/39/4 
f 33/41/3 31/42/4 28/36/4 
f 28/36/4 30/35/4 33/41/3 
f 31/39/4 34/43/5 35/44/5 
f 35/44/5 32/40/4 31/39/4 
f 33/41/3 36/45/5 34/46/5 
f 34/46/5 31/42/4 33/41/3 
usemtl Shops_C
s 16
f 37/47/6 27/48/6 6/49/6 
f 6/49/6 5/50/6 37/47/6 
f 38/51/6 37/47/6 5/50/6 
f 5/50/6 9/52/6 38/51/6 
f 39/53/6 38/51/6 9/52/6 
f 9/52/6 12/54/6 39/53/6 
usemtl Facade_C
f 40/55/6 30/56/6 27/57/6 
f 27/57/6 37/58/6 40/55/6 
f 41/59/6 40/55/6 37/58/6 
f 37/58/6 38/60/6 41/59/6 
f 42/61/6 41/59/6 38/60/6 
f 38/60/6 39/62/6 42/61/6 
f 43/63/6 33/64/6 30/56/6 
f 30/56/6 40/55/6 43/63/6 
f 44/65/6 43/63/6 40/55/6 
f 40/55/6 41/59/6 44/65/6 
f 45/66/6 44/65/6 41/59/6 
f 41/59/6 42/61/6 45/66/6 
f 43/63/6 46/67/7 36/68/7 
f 36/68/7 33/64/6 43/63/6 
f 44/65/6 47/69/7 46/67/7 
f 46/67/7 43/63/6 44/65/6 
f 45/66/6 48/70/7 47/69/7 
f 47/69/7 44/65/6 45/66/6 
usemtl Shops_C
s 32
f 49/71/8 39/72/8 12/73/8 
f 12/73/8 10/74/8 49/71/8 
f 50/53/8 49/71/8 10/74/8 
f 10/74/8 11/54/8 50/53/8 
usemtl Facade_C
f 51/75/8 42/76/8 39/77/8 
f 39/77/8 49/78/8 51/75/8 
f 52/61/8 51/79/8 49/80/8 
f 49/80/8 50/62/8 52/61/8 
f 53/81/9 45/82/9 42/76/8 
f 42/76/8 51/75/8 53/81/9 
f 54/66/9 53/83/9 51/79/8 
f 51/79/8 52/61/8 54/66/9 
f 53/81/9 55/84/10 48/85/10 
f 48/85/10 45/82/9 53/81/9 
f 54/66/9 56/70/10 55/86/10 
f 55/86/10 53/83/9 54/66/9 
usemtl Shops_C
s 64
f 57/87/11 50/29/11 11/3/11 
f 11/3/11 8/88/11 57/87/11 
f 58/89/11 57/87/11 8/88/11 
f 8/88/11 4/90/11 58/89/11 
f 26/91/11 58/89/11 4/90/11 
f 4/90/11 3/92/11 26/91/11 
usemtl Facade_C
f 59/93/11 52/32/11 50/33/11 
f 50/33/11 57/94/11 59/93/11 
f 60/95/11 59/93/11 57/94/11 
f 57/94/11 58/96/11 60/95/11 
f 29/97/11 60/95/11 58/96/11 
f 58/96/11 26/98/11 29/97/11 
f 61/99/11 54/40/11 52/32/11 
f 52/32/11 59/93/11 61/99/11 
f 62/100/11 61/99/11 59/93/11 
f 59/93/11 60/95/11 62/100/11 
f 32/101/11 62/100/11 60/95/11 
f 60/95/11 29/97/11 32/101/11 
f 61/99/11 63/102/12 56/44/12 
f 56/44/12 54/40/11 61/99/11 
f 62/100/11 64/103/12 63/102/12 
f 63/102/12 61/99/11 62/100/11 
f 32/101/11 35/104/12 64/103/12 
f 64/103/12 62/100/11 32/101/11 
usemtl Tiles_C
s off
f 65/105/13 66/106/13 67/107/13 
f 67/107/13 68/108/13 65/105/13 
f 66/109/14 69/110/14 70/111/14 
f 70/111/14 67/112/14 66/109/14 
f 71/113/13 65/105/13 68/108/13 
f 68/108/13 72/114/13 71/113/13 
f 73/115/15 71/116/15 72/117/15 
f 72/117/15 74/118/15 73/115/15 
f 69/110/14 75/119/14 76/120/14 
f 76/120/14 70/111/14 69/110/14 
f 77/121/15 73/115/15 74/118/15 
f 74/118/15 78/122/15 77/121/15 
f 79/123/16 80/124/16 81/125/16 
f 81/125/16 82/126/16 79/123/16 
f 75/119/14 79/127/14 82/128/14 
f 82/128/14 76/120/14 75/119/14 
f 83/129/15 77/121/15 78/122/15 
f 78/122/15 84/130/15 83/129/15 
f 80/124/16 83/131/16 84/132/16 
f 84/132/16 81/125/16 80/124/16 
usemtl Shops_C
f 85/133/17 86/134/17 66/135/17 
f 66/135/17 65/136/17 85/133/17 
f 86/137/18 87/138/18 69/139/18 
f 69/139/18 66/140/18 86/137/18 
f 88/141/17 85/133/17 65/136/17 
f 65/136/17 71/142/17 88/141/17 
f 89/143/19 88/144/19 71/145/19 
f 71/145/19 73/146/19 89/143/19 
f 87/138/18 90/147/18 75/148/18 
f 75/148/18 69/139/18 87/138/18 
f 91/149/19 89/143/19 73/146/19 
f 73/146/19 77/150/19 91/149/19 
f 92/151/20 93/152/20 80/153/20 
f 80/153/20 79/154/20 92/151/20 
f 90/147/18 92/155/18 79/156/18 
f 79/156/18 75/148/18 90/147/18 
f 94/157/19 91/149/19 77/150/19 
f 77/150/19 83/158/19 94/157/19 
f 93/152/20 94/159/20 83/160/20 
f 83/160/20 80/153/20 93/152/20 
f 16/161/8 15/162/8 86/163/8 
f 86/163/8 85/164/8 16/161/8 
f 15/165/6 14/166/6 87/167/6 
f 87/167/6 86/168/6 15/165/6 
f 18/165/8 16/161/8 85/164/8 
f 85/164/8 88/168/8 18/165/8 
f 17/169/11 18/170/11 88/171/11 
f 88/171/11 89/172/11 17/169/11 
f 14/166/6 20/173/6 90/174/6 
f 90/174/6 87/167/6 14/166/6 
f 21/175/11 17/169/11 89/172/11 
f 89/172/11 91/176/11 21/175/11 
f 23/177/3 22/178/3 93/179/3 
f 93/179/3 92/180/3 23/177/3 
f 20/173/6 23/162/6 92/163/6 
f 92/163/6 90/174/6 20/173/6 
f 24/177/11 21/175/11 91/176/11 
f 91/176/11 94/180/11 24/177/11 
f 22/178/3 24/170/3 94/171/3 
f 94/171/3 93/179/3 22/178/3 
usemtl Facade_C
s 8
f 95/181/5 96/182/5 35/44/5 
f 35/44/5 34/43/5 95/181/5 
f 97/183/5 95/184/5 34/46/5 
f 34/46/5 36/45/5 97/183/5 
s 16
f 98/185/7 97/186/7 36/68/7 
f 36/68/7 46/67/7 98/185/7 
f 99/187/7 98/185/7 46/67/7 
f 46/67/7 47/69/7 99/187/7 
f 100/188/7 99/187/7 47/69/7 
f 47/69/7 48/70/7 100/188/7 
s 32
f 101/189/10 100/190/10 48/85/10 
f 48/85/10 55/84/10 101/189/10 
f 102/188/10 101/191/10 55/86/10 
f 55/86/10 56/70/10 102/188/10 
s 64
f 103/192/12 102/182/12 56/44/12 
f 56/44/12 63/102/12 103/192/12 
f 104/193/12 103/192/12 63/102/12 
f 63/102/12 64/103/12 104/193/12 
f 96/194/12 104/193/12 64/103/12 
f 64/103/12 35/104/12 96/194/12 
s 8
f 68/195/3 67/196/3 96/182/5 
f 96/182/5 95/181/5 68/195/3 
f 72/197/3 68/198/3 95/184/5 
f 95/184/5 97/183/5 72/197/3 
s 16
f 74/199/6 72/200/6 97/186/7 
f 97/186/7 98/185/7 74/199/6 
f 78/201/6 74/199/6 98/185/7 
f 98/185/7 99/187/7 78/201/6 
f 84/202/6 78/201/6 99/187/7 
f 99/187/7 100/188/7 84/202/6 
s 32
f 81/203/8 84/204/8 100/190/10 
f 100/190/10 101/189/10 81/203/8 
f 82/202/8 81/205/8 101/191/10 
f 101/191/10 102/188/10 82/202/8 
s 64
f 76/206/11 82/196/11 102/182/12 
f 102/182/12 103/192/12 76/206/11 
f 70/207/11 76/206/11 103/192/12 
f 103/192/12 104/193/12 70/207/11 
f 67/208/11 70/207/11 104/193/12 
f 104/193/12 96/194/12 67/208/11 
s 2
f 105/209/1 106/210/1 107/72/1 
f 107/72/1 108/53/1 105/209/1 
s 4
f 109/211/2 110/30/2 111/29/2 
f 111/29/2 112/212/2 109/211/2 
s 8
f 112/213/21 111/214/21 107/215/21 
f 107/215/21 106/216/21 112/213/21 
s 16
f 109/213/6 112/214/6 106/215/6 
f 106/215/6 105/216/6 109/213/6 
s 32
f 110/217/9 109/218/9 105/219/9 
f 105/219/9 108/220/9 110/217/9 
s 64
f 111/217/11 110/218/11 108/219/11 
f 108/219/11 107/220/11 111/217/11 
s 2
f 113/209/1 114/210/1 115/72/1 
f 115/72/1 116/53/1 113/209/1 
s 4
f 117/211/2 118/30/2 119/29/2 
f 119/29/2 120/212/2 117/211/2 
s 8
f 120/213/21 119/214/21 115/215/21 
f 115/215/21 114/216/21 120/213/21 
s 16
f 117/213/6 120/214/6 114/215/6 
f 114/215/6 113/216/6 117/213/6 
s 32
f 118/217/9 117/218/9 113/219/9 
f 113/219/9 116/220/9 118/217/9 
s 64
f 119/217/11 118/218/11 116/219/11 
f 116/219/11 115/220/11 119/217/11 
usemtl Brick_C
s 2
f 121/221/1 122/222/1 123/223/1 
f 123/223/1 124/224/1 121/221/1 
usemtl Roof_C
s 4
f 125/225/2 126/226/2 127/227/2 
f 127/227/2 128/228/2 125/225/2 
usemtl Brick_C
s 8
f 122/229/3 129/230/22 130/231/22 
f 130/231/22 123/232/3 122/229/3 
s 16
f 121/233/6 131/234/23 129/235/23 
f 129/235/23 122/236/6 121/233/6 
s 32
f 124/237/8 132/238/24 131/239/24 
f 131/239/24 121/240/8 124/237/8 
s 64
f 123/241/11 130/242/25 132/243/25 
f 132/243/25 124/244/11 123/241/11 
s 8
f 133/245/26 134/246/26 130/231/22 
f 130/231/22 129/230/22 133/245/26 
s 16
f 135/247/27 133/248/27 129/235/23 
f 129/235/23 131/234/23 135/247/27 
s 32
f 136/249/28 135/250/28 131/239/24 
f 131/239/24 132/238/24 136/249/28 
s 64
f 134/251/29 136/252/29 132/243/25 
f 132/243/25 130/242/25 134/251/29 
s 8
f 128/253/3 127/254/3 134/246/26 
f 134/246/26 133/245/26 128/253/3 
s 16
f 125/255/6 128/256/6 133/248/27 
f 133/248/27 135/247/27 125/255/6 
s 32
f 126/257/8 125/258/8 135/250/28 
f 135/250/28 136/249/28 126/257/8 
s 64
f 127/259/11 126/260/11 136/252/29 
f 136/252/29 134/251/29 127/259/11 
# 256 faces

