# 3ds Max Wavefront OBJ Exporter v0.97b - (c)2007 guruware
# File Created: 24.04.2015 16:06:24

mtllib residential_building_05.mtl

#
# object Shops_F_01
#

v  0.0000 -5.3215 0.0000
v  0.0000 -15.9644 0.0000
v  -16.0000 -15.9644 0.0000
v  -16.0000 -5.3215 0.0000
v  16.0000 -5.3215 0.0000
v  16.0000 -15.9644 0.0000
v  0.0000 5.3215 0.0000
v  -16.0000 5.3215 0.0000
v  16.0000 5.3215 0.0000
v  0.0000 15.9644 0.0000
v  -16.0000 15.9644 0.0000
v  16.0000 15.9644 0.0000
v  0.0000 -4.6773 39.3136
v  -14.0631 -4.6773 39.3136
v  -14.0631 -14.0318 39.3136
v  -0.0000 -14.0318 39.3136
v  14.0631 -4.6773 39.3136
v  14.0631 -14.0318 39.3136
v  -0.0000 4.6772 39.3136
v  -14.0631 4.6772 39.3136
v  14.0631 4.6772 39.3136
v  0.0000 14.0318 39.3136
v  -14.0631 14.0318 39.3136
v  14.0631 14.0318 39.3136
v  0.0000 -15.9644 6.3897
v  -16.0000 -15.9644 6.3897
v  16.0000 -15.9644 6.3897
v  0.0000 -15.9644 15.8431
v  -16.0000 -15.9644 15.8431
v  16.0000 -15.9644 15.8431
v  0.0000 -15.9644 25.2966
v  -16.0000 -15.9644 25.2966
v  16.0000 -15.9644 25.2966
v  0.0000 -15.9644 32.8477
v  -16.0000 -15.9644 32.8477
v  16.0000 -15.9644 32.8477
v  16.0000 -5.3215 6.3897
v  16.0000 5.3215 6.3897
v  16.0000 15.9644 6.3897
v  16.0000 -5.3215 15.8431
v  16.0000 5.3215 15.8431
v  16.0000 15.9644 15.8431
v  16.0000 -5.3215 25.2966
v  16.0000 5.3215 25.2966
v  16.0000 15.9644 25.2966
v  16.0000 -5.3215 32.8477
v  16.0000 5.3215 32.8477
v  16.0000 15.9644 32.8477
v  -0.0000 15.9644 6.3897
v  -16.0000 15.9644 6.3897
v  -0.0000 15.9644 15.8431
v  -16.0000 15.9644 15.8431
v  -0.0000 15.9644 25.2966
v  -16.0000 15.9644 25.2966
v  -0.0000 15.9644 32.8477
v  -16.0000 15.9644 32.8477
v  -16.0000 5.3215 6.3897
v  -16.0000 -5.3215 6.3897
v  -16.0000 5.3215 15.8431
v  -16.0000 -5.3215 15.8431
v  -16.0000 5.3215 25.2966
v  -16.0000 -5.3215 25.2966
v  -16.0000 5.3215 32.8477
v  -16.0000 -5.3215 32.8477
v  0.0000 -15.3135 40.0559
v  -15.3477 -15.3135 40.0559
v  -16.0113 -15.9756 34.7500
v  0.0000 -15.9756 34.7500
v  -15.3477 -5.1045 40.0559
v  -16.0113 -5.3252 34.7500
v  15.3477 -15.3135 40.0559
v  16.0113 -15.9756 34.7500
v  15.3477 -5.1045 40.0559
v  16.0113 -5.3252 34.7500
v  -15.3477 5.1045 40.0559
v  -16.0113 5.3252 34.7500
v  15.3477 5.1045 40.0559
v  16.0113 5.3252 34.7500
v  -15.3477 15.3135 40.0559
v  -0.0000 15.3135 40.0559
v  -0.0000 15.9756 34.7500
v  -16.0113 15.9756 34.7500
v  15.3477 15.3135 40.0559
v  16.0113 15.9756 34.7500
v  -0.0000 -14.0318 40.0579
v  -14.0631 -14.0318 40.0579
v  -14.0631 -4.6772 40.0579
v  14.0631 -14.0318 40.0579
v  14.0631 -4.6772 40.0579
v  -14.0631 4.6772 40.0579
v  14.0631 4.6772 40.0579
v  -14.0631 14.0318 40.0579
v  0.0000 14.0318 40.0579
v  14.0631 14.0318 40.0579
v  0.0000 -15.9756 33.4189
v  -16.0113 -15.9756 33.4189
v  16.0113 -15.9756 33.4189
v  16.0113 -5.3252 33.4189
v  16.0113 5.3252 33.4189
v  16.0113 15.9756 33.4189
v  -0.0000 15.9756 33.4189
v  -16.0113 15.9756 33.4189
v  -16.0113 5.3252 33.4189
v  -16.0113 -5.3252 33.4189
v  6.0189 2.4072 39.2590
v  11.0944 2.4072 39.2590
v  11.0944 -2.6276 39.2590
v  6.0189 -2.6276 39.2590
v  5.8936 2.5895 43.2532
v  5.8936 -2.8099 43.2532
v  11.2736 -2.8099 43.2532
v  11.2736 2.5895 43.2532
v  11.0944 2.4072 42.4421
v  11.0944 -2.6276 42.4421
v  6.0189 2.4072 42.4421
v  6.0189 -2.6276 42.4421
v  11.2736 2.5895 42.7699
v  11.2736 -2.8099 42.7699
v  5.8936 2.5895 42.7699
v  5.8936 -2.8099 42.7699
# 120 vertices

vn 0.0000 0.0000 -1.0000
vn 0.0000 0.0000 1.0000
vn 0.0000 -1.0000 0.0000
vn -0.0000 -1.0000 -0.0000
vn 0.0000 -1.0000 -0.0000
vn -0.0000 -1.0000 0.0000
vn 0.0000 -1.0000 -0.0070
vn 1.0000 0.0000 0.0000
vn 1.0000 0.0000 -0.0047
vn 0.0000 1.0000 0.0000
vn 0.0000 1.0000 -0.0000
vn 0.0000 1.0000 -0.0070
vn -1.0000 0.0000 0.0000
vn -1.0000 -0.0000 0.0000
vn -1.0000 -0.0000 -0.0000
vn -1.0000 0.0000 -0.0047
vn -1.0000 -0.0000 -0.0047
vn 0.0000 -0.9961 0.0883
vn -0.9983 -0.0000 0.0590
vn -0.9983 0.0000 0.0590
vn 0.9983 0.0000 0.0590
vn 0.0000 0.9961 0.0883
vn 0.0000 -0.0022 1.0000
vn -0.0033 0.0000 1.0000
vn -0.0033 -0.0000 1.0000
vn 0.0033 0.0000 1.0000
vn 0.0000 0.0022 1.0000
vn 0.9903 0.0000 -0.1392
vn 0.0000 0.9805 -0.1965
vn 0.0000 0.9798 -0.2001
vn -0.9951 0.0000 -0.0987
vn 0.0000 -0.9798 -0.2001
vn 0.0000 -0.9805 -0.1965
vn 0.9940 0.0000 -0.1094
vn 0.0000 0.9843 -0.1766
vn 0.0000 0.9851 -0.1719
vn -0.9970 0.0000 -0.0773
vn 0.0000 -0.9851 -0.1719
vn 0.0000 -0.9843 -0.1766
# 39 vertex normals

vt 0.5000 0.0005 0.6665
vt 0.5000 0.0005 0.9995
vt 0.0005 0.0005 0.9995
vt 0.0005 0.0005 0.6665
vt 0.9995 0.0005 0.6665
vt 0.9995 0.0005 0.9995
vt 0.5000 0.6667 0.0000
vt 0.5000 0.3333 0.0000
vt 1.0000 0.3333 0.0000
vt 1.0000 0.6667 0.0000
vt 0.0000 0.6667 0.0000
vt 0.0000 0.3333 0.0000
vt 0.5000 1.0000 0.0000
vt 1.0000 1.0000 0.0000
vt 0.0000 1.0000 0.0000
vt 0.5000 0.0103 0.5000
vt -0.4990 0.0103 0.5000
vt -0.4990 -0.9691 0.5000
vt 0.5000 -0.9691 0.5000
vt 1.4990 0.0103 0.5000
vt 1.4990 -0.9691 0.5000
vt 0.5000 0.9897 0.5000
vt -0.4990 0.9897 0.5000
vt 1.4990 0.9897 0.5000
vt 0.5000 1.9691 0.5000
vt -0.4990 1.9691 0.5000
vt 1.4990 1.9691 0.5000
vt 0.5000 0.9995 0.9995
vt 0.0005 0.9995 0.9995
vt 0.9995 0.9995 0.9995
vt 0.5393 0.6954 0.9995
vt 0.0327 0.6954 0.9995
vt 0.0327 0.0471 0.9995
vt 0.5393 0.0471 0.9995
vt 0.0339 0.6954 0.9995
vt 0.5367 0.6954 0.9995
vt 0.5367 0.0471 0.9995
vt 0.0339 0.0471 0.9995
vt 0.5393 1.3474 0.9995
vt 0.0327 1.3474 0.9995
vt 0.0339 1.3474 0.9995
vt 0.5367 1.3474 0.9995
vt 0.5393 1.8609 0.9995
vt 0.0327 1.8609 0.9995
vt 0.0339 1.8609 0.9995
vt 0.5367 1.8609 0.9995
vt 1.6662 0.9995 0.0005
vt 0.6489 0.9995 0.0005
vt 0.6489 0.0005 0.0005
vt 1.6662 0.0005 0.0005
vt 0.6660 0.9995 0.0005
vt 0.6660 0.0005 0.0005
vt 0.0005 0.9995 0.0005
vt 0.0005 0.0005 0.0005
vt 0.6906 0.6954 0.0005
vt 1.0336 0.6954 0.0005
vt 1.0336 0.0471 0.0005
vt 0.6906 0.0471 0.0005
vt 0.3476 0.6954 0.0005
vt 0.3476 0.0471 0.0005
vt 0.0046 0.6954 0.0005
vt 0.0046 0.0471 0.0005
vt 0.6906 1.3474 0.0005
vt 1.0336 1.3474 0.0005
vt 0.3476 1.3474 0.0005
vt 0.0046 1.3474 0.0005
vt 0.6906 1.8609 0.0005
vt 1.0336 1.8609 0.0005
vt 0.3476 1.8609 0.0005
vt 0.0046 1.8609 0.0005
vt 0.5000 0.9995 0.0005
vt 0.9995 0.9995 0.0005
vt 0.9995 0.0005 0.0005
vt 0.5000 0.0005 0.0005
vt 0.3682 0.6954 0.0005
vt 0.0058 0.6954 0.0005
vt 0.0058 0.0471 0.0005
vt 0.3682 0.0471 0.0005
vt 0.3708 0.6954 0.0005
vt 0.3708 0.0471 0.0005
vt 0.3682 1.3474 0.0005
vt 0.0058 1.3474 0.0005
vt 0.3708 1.3474 0.0005
vt 0.3682 1.8609 0.0005
vt 0.0058 1.8609 0.0005
vt 0.3708 1.8609 0.0005
vt 0.6660 0.9995 0.9995
vt 0.6660 0.0005 0.9995
vt 1.6662 0.9995 0.9995
vt 1.6662 0.0005 0.9995
vt 0.6489 0.9995 0.9995
vt 0.6489 0.0005 0.9995
vt 0.3476 0.6954 0.9995
vt 0.0046 0.6954 0.9995
vt 0.0046 0.0471 0.9995
vt 0.3476 0.0471 0.9995
vt 0.6906 0.6954 0.9995
vt 0.6906 0.0471 0.9995
vt 1.0336 0.6954 0.9995
vt 1.0336 0.0471 0.9995
vt 0.3476 1.3474 0.9995
vt 0.0046 1.3474 0.9995
vt 0.6906 1.3474 0.9995
vt 1.0336 1.3474 0.9995
vt 0.3476 1.8609 0.9995
vt 0.0046 1.8609 0.9995
vt 0.6906 1.8609 0.9995
vt 1.0336 1.8609 0.9995
vt 0.4921 1.4470 1.0075
vt -8.7750 1.4470 1.0075
vt -8.8008 -0.3107 1.1565
vt 0.4921 -0.3107 1.1565
vt 11.9982 1.4470 0.0913
vt 4.3275 1.4470 0.0913
vt 4.3382 -0.3107 -0.0287
vt 12.0303 -0.3107 -0.0287
vt 9.7592 1.4470 1.0075
vt 9.7850 -0.3107 1.1565
vt -3.3433 1.4470 0.9087
vt -11.0141 1.4470 0.9087
vt -11.0461 -0.3107 1.0287
vt -3.3540 -0.3107 1.0287
vt -3.3433 1.4470 0.0913
vt -3.3540 -0.3107 -0.0287
vt 4.3275 1.4470 0.9087
vt 4.3382 -0.3107 1.0287
vt 9.7592 1.4470 -0.0075
vt 0.4921 1.4470 -0.0075
vt 0.4921 -0.3107 -0.1565
vt 9.7850 -0.3107 -0.1565
vt -11.0141 1.4470 0.0913
vt -11.0461 -0.3107 -0.0287
vt 11.9982 1.4470 0.9087
vt 12.0303 -0.3107 1.0287
vt -8.7750 1.4470 -0.0075
vt -8.8008 -0.3107 -0.1565
vt 0.2925 -1.9377 0.0100
vt -8.5872 -1.9377 0.0100
vt -9.3984 -2.1371 0.0099
vt 0.2925 -2.1371 0.0099
vt 10.1748 -1.9554 0.0100
vt 3.2524 -1.9554 0.0100
vt 3.5227 -2.1547 0.0099
vt 10.9859 -2.1547 0.0099
vt 10.2464 -1.9378 0.0100
vt 11.0575 -2.1371 0.0099
vt 3.2524 2.6735 0.0100
vt 10.1748 2.6735 0.0100
vt 10.9859 2.8728 0.0099
vt 3.5227 2.8728 0.0099
vt -2.6674 -1.9554 0.0100
vt -2.9378 -2.1547 0.0099
vt -2.6674 2.6735 0.0100
vt -2.9378 2.8728 0.0099
vt -8.5872 2.6559 0.0100
vt 0.2925 2.6559 0.0100
vt 0.2925 2.8552 0.0099
vt -9.3983 2.8552 0.0099
vt -8.5156 -1.9553 0.0100
vt -9.3267 -2.1547 0.0099
vt -8.5156 2.6735 0.0100
vt -9.3267 2.8728 0.0099
vt 10.2464 2.6559 0.0100
vt 11.0575 2.8552 0.0099
vt 0.4921 -0.4440 0.0423
vt 2.2258 -0.4440 0.0423
vt 2.2258 -0.2940 0.0423
vt 0.4921 -0.2940 0.0423
vt -1.2416 -0.4440 0.0423
vt -0.0858 -0.4440 0.0423
vt -0.0858 -0.2940 0.0423
vt -1.2416 -0.2940 0.0423
vt 1.0700 -0.4440 0.9577
vt 2.2258 -0.4440 0.9577
vt 2.2258 -0.2940 0.9577
vt 1.0700 -0.2940 0.9577
vt 1.0700 -0.4440 0.0423
vt 1.0700 -0.2940 0.0423
vt -0.0858 -0.4440 0.9577
vt -0.0858 -0.2940 0.9577
vt -1.2416 -0.4440 0.9577
vt 0.4921 -0.4440 0.9577
vt 0.4921 -0.2940 0.9577
vt -1.2416 -0.2940 0.9577
vt 0.5393 1.9003 0.9995
vt 0.0327 1.9003 0.9995
vt 0.0339 1.9003 0.9995
vt 0.5367 1.9003 0.9995
vt 0.6906 1.9003 0.0005
vt 1.0336 1.9003 0.0005
vt 0.3476 1.9003 0.0005
vt 0.0046 1.9003 0.0005
vt 0.3682 1.9003 0.0005
vt 0.0058 1.9003 0.0005
vt 0.3708 1.9003 0.0005
vt 0.3476 1.9003 0.9995
vt 0.0046 1.9003 0.9995
vt 0.6906 1.9003 0.9995
vt 1.0336 1.9003 0.9995
vt 0.5393 1.9921 0.9995
vt 0.0327 1.9921 0.9995
vt 0.0339 1.9921 0.9995
vt 0.5367 1.9921 0.9995
vt 0.6906 1.9921 0.0005
vt 1.0336 1.9921 0.0005
vt 0.3476 1.9921 0.0005
vt 0.0046 1.9921 0.0005
vt 0.3682 1.9921 0.0005
vt 0.0058 1.9921 0.0005
vt 0.3708 1.9921 0.0005
vt 0.3476 1.9921 0.9995
vt 0.0046 1.9921 0.9995
vt 0.6906 1.9921 0.9995
vt 1.0336 1.9921 0.9995
vt -5.6112 4.0836 -0.1750
vt -5.6112 -2.9474 -0.1750
vt 6.5954 -2.9474 -0.1750
vt 6.5954 4.0836 -0.1750
vt 2.1113 2.4980 1.1750
vt -1.1113 2.4980 1.1750
vt -1.1113 -1.4980 1.1750
vt 2.1113 -1.4980 1.1750
vt 6.5954 -0.6195 -1.4980
vt 6.5954 1.0997 -1.4980
vt -5.6112 1.0997 -1.4980
vt -5.6112 -0.6195 -1.4980
vt 8.0602 -0.6195 2.1113
vt 8.0602 1.0997 2.1113
vt -7.0760 1.0997 2.1113
vt -7.0760 -0.6195 2.1113
vt 6.5954 -0.6195 2.4980
vt 6.5954 1.0997 2.4980
vt -5.6112 1.0997 2.4980
vt -5.6112 -0.6195 2.4980
vt 8.0602 -0.6195 -1.1113
vt 8.0602 1.0997 -1.1113
vt -7.0760 1.0997 -1.1113
vt -7.0760 -0.6195 -1.1113
vt 6.5954 1.3649 -1.4980
vt -5.6112 1.3649 -1.4980
vt 8.0602 1.3649 2.1113
vt -7.0760 1.3649 2.1113
vt 6.5954 1.3649 2.4980
vt -5.6112 1.3649 2.4980
vt 8.0602 1.3649 -1.1113
vt -7.0760 1.3649 -1.1113
vt 6.5954 1.7558 -1.4980
vt -5.6112 1.7558 -1.4980
vt 8.0602 1.7558 2.1113
vt -7.0760 1.7558 2.1113
vt 6.5954 1.7558 2.4980
vt -5.6112 1.7558 2.4980
vt 8.0602 1.7558 -1.1113
vt -7.0760 1.7558 -1.1113
# 254 texture coords

g Shops_F_01
usemtl Shops
s 2
f 1/1/1 2/2/1 3/3/1 
f 3/3/1 4/4/1 1/1/1 
f 5/5/1 6/6/1 2/2/1 
f 2/2/1 1/1/1 5/5/1 
f 7/7/1 1/8/1 4/9/1 
f 4/9/1 8/10/1 7/7/1 
f 9/11/1 5/12/1 1/8/1 
f 1/8/1 7/7/1 9/11/1 
f 10/13/1 7/7/1 8/10/1 
f 8/10/1 11/14/1 10/13/1 
f 12/15/1 9/11/1 7/7/1 
f 7/7/1 10/13/1 12/15/1 
usemtl Roof
s 4
f 13/16/2 14/17/2 15/18/2 
f 15/18/2 16/19/2 13/16/2 
f 17/20/2 13/16/2 16/19/2 
f 16/19/2 18/21/2 17/20/2 
f 19/22/2 20/23/2 14/17/2 
f 14/17/2 13/16/2 19/22/2 
f 21/24/2 19/22/2 13/16/2 
f 13/16/2 17/20/2 21/24/2 
f 22/25/2 23/26/2 20/23/2 
f 20/23/2 19/22/2 22/25/2 
f 24/27/2 22/25/2 19/22/2 
f 19/22/2 21/24/2 24/27/2 
usemtl Shops
s 8
f 25/28/3 26/29/3 3/3/3 
f 3/3/3 2/2/3 25/28/3 
f 27/30/3 25/28/3 2/2/3 
f 2/2/3 6/6/3 27/30/3 
usemtl Facade
f 28/31/4 29/32/5 26/33/3 
f 26/33/3 25/34/3 28/31/4 
f 30/35/5 28/36/4 25/37/3 
f 25/37/3 27/38/3 30/35/5 
f 31/39/4 32/40/5 29/32/5 
f 29/32/5 28/31/4 31/39/4 
f 33/41/6 31/42/4 28/36/4 
f 28/36/4 30/35/5 33/41/6 
f 31/39/4 34/43/7 35/44/7 
f 35/44/7 32/40/5 31/39/4 
f 33/41/6 36/45/7 34/46/7 
f 34/46/7 31/42/4 33/41/6 
usemtl Shops
s 16
f 37/47/8 27/48/8 6/49/8 
f 6/49/8 5/50/8 37/47/8 
f 38/51/8 37/47/8 5/50/8 
f 5/50/8 9/52/8 38/51/8 
f 39/53/8 38/51/8 9/52/8 
f 9/52/8 12/54/8 39/53/8 
usemtl Facade
f 40/55/8 30/56/8 27/57/8 
f 27/57/8 37/58/8 40/55/8 
f 41/59/8 40/55/8 37/58/8 
f 37/58/8 38/60/8 41/59/8 
f 42/61/8 41/59/8 38/60/8 
f 38/60/8 39/62/8 42/61/8 
f 43/63/8 33/64/8 30/56/8 
f 30/56/8 40/55/8 43/63/8 
f 44/65/8 43/63/8 40/55/8 
f 40/55/8 41/59/8 44/65/8 
f 45/66/8 44/65/8 41/59/8 
f 41/59/8 42/61/8 45/66/8 
f 43/63/8 46/67/9 36/68/9 
f 36/68/9 33/64/8 43/63/8 
f 44/65/8 47/69/9 46/67/9 
f 46/67/9 43/63/8 44/65/8 
f 45/66/8 48/70/9 47/69/9 
f 47/69/9 44/65/8 45/66/8 
usemtl Shops
s 32
f 49/71/10 39/72/10 12/73/10 
f 12/73/10 10/74/10 49/71/10 
f 50/53/10 49/71/10 10/74/10 
f 10/74/10 11/54/10 50/53/10 
usemtl Facade
f 51/75/10 42/76/10 39/77/10 
f 39/77/10 49/78/10 51/75/10 
f 52/61/10 51/79/10 49/80/10 
f 49/80/10 50/62/10 52/61/10 
f 53/81/11 45/82/11 42/76/10 
f 42/76/10 51/75/10 53/81/11 
f 54/66/11 53/83/11 51/79/10 
f 51/79/10 52/61/10 54/66/11 
f 53/81/11 55/84/12 48/85/12 
f 48/85/12 45/82/11 53/81/11 
f 54/66/11 56/70/12 55/86/12 
f 55/86/12 53/83/11 54/66/11 
usemtl Shops
s 64
f 57/87/13 50/29/13 11/3/13 
f 11/3/13 8/88/13 57/87/13 
f 58/89/14 57/87/13 8/88/13 
f 8/88/13 4/90/14 58/89/14 
f 26/91/14 58/89/14 4/90/14 
f 4/90/14 3/92/13 26/91/14 
usemtl Facade
f 59/93/13 52/94/13 50/95/13 
f 50/95/13 57/96/13 59/93/13 
f 60/97/15 59/93/13 57/96/13 
f 57/96/13 58/98/14 60/97/15 
f 29/99/15 60/97/15 58/98/14 
f 58/98/14 26/100/14 29/99/15 
f 61/101/13 54/102/13 52/94/13 
f 52/94/13 59/93/13 61/101/13 
f 62/103/14 61/101/13 59/93/13 
f 59/93/13 60/97/15 62/103/14 
f 32/104/15 62/103/14 60/97/15 
f 60/97/15 29/99/15 32/104/15 
f 61/101/13 63/105/16 56/106/16 
f 56/106/16 54/102/13 61/101/13 
f 62/103/14 64/107/17 63/105/16 
f 63/105/16 61/101/13 62/103/14 
f 32/104/15 35/108/17 64/107/17 
f 64/107/17 62/103/14 32/104/15 
usemtl Tiles
s off
f 65/109/18 66/110/18 67/111/18 
f 67/111/18 68/112/18 65/109/18 
f 66/113/19 69/114/19 70/115/19 
f 70/115/20 67/116/20 66/113/20 
f 71/117/18 65/109/18 68/112/18 
f 68/112/18 72/118/18 71/117/18 
f 73/119/21 71/120/21 72/121/21 
f 72/121/21 74/122/21 73/119/21 
f 69/114/20 75/123/20 76/124/20 
f 76/124/20 70/115/20 69/114/20 
f 77/125/21 73/119/21 74/122/21 
f 74/122/21 78/126/21 77/125/21 
f 79/127/22 80/128/22 81/129/22 
f 81/129/22 82/130/22 79/127/22 
f 75/123/20 79/131/20 82/132/20 
f 82/132/20 76/124/20 75/123/20 
f 83/133/21 77/125/21 78/126/21 
f 78/126/21 84/134/21 83/133/21 
f 80/128/22 83/135/22 84/136/22 
f 84/136/22 81/129/22 80/128/22 
usemtl Brick
f 85/137/23 86/138/23 66/139/23 
f 66/139/23 65/140/23 85/137/23 
f 86/141/24 87/142/24 69/143/24 
f 69/143/25 66/144/25 86/141/25 
f 88/145/23 85/137/23 65/140/23 
f 65/140/23 71/146/23 88/145/23 
f 89/147/26 88/148/26 71/149/26 
f 71/149/26 73/150/26 89/147/26 
f 87/142/24 90/151/24 75/152/24 
f 75/152/24 69/143/24 87/142/24 
f 91/153/26 89/147/26 73/150/26 
f 73/150/26 77/154/26 91/153/26 
f 92/155/27 93/156/27 80/157/27 
f 80/157/27 79/158/27 92/155/27 
f 90/151/24 92/159/24 79/160/24 
f 79/160/24 75/152/24 90/151/24 
f 94/161/26 91/153/26 77/154/26 
f 77/154/26 83/162/26 94/161/26 
f 93/156/27 94/163/27 83/164/27 
f 83/164/27 80/157/27 93/156/27 
f 16/165/10 15/166/10 86/167/10 
f 86/167/10 85/168/10 16/165/10 
f 15/169/8 14/170/8 87/171/8 
f 87/171/8 86/172/8 15/169/8 
f 18/169/10 16/165/10 85/168/10 
f 85/168/10 88/172/10 18/169/10 
f 17/173/13 18/174/13 88/175/13 
f 88/175/13 89/176/13 17/173/13 
f 14/170/8 20/177/8 90/178/8 
f 90/178/8 87/171/8 14/170/8 
f 21/179/13 17/173/13 89/176/13 
f 89/176/13 91/180/13 21/179/13 
f 23/181/3 22/182/3 93/183/3 
f 93/183/3 92/184/3 23/181/3 
f 20/177/8 23/166/8 92/167/8 
f 92/167/8 90/178/8 20/177/8 
f 24/181/13 21/179/13 91/180/13 
f 91/180/13 94/184/13 24/181/13 
f 22/182/3 24/174/3 94/175/3 
f 94/175/3 93/183/3 22/182/3 
usemtl Facade
s 8
f 95/185/7 96/186/7 35/44/7 
f 35/44/7 34/43/7 95/185/7 
f 97/187/7 95/188/7 34/46/7 
f 34/46/7 36/45/7 97/187/7 
s 16
f 98/189/9 97/190/9 36/68/9 
f 36/68/9 46/67/9 98/189/9 
f 99/191/9 98/189/9 46/67/9 
f 46/67/9 47/69/9 99/191/9 
f 100/192/9 99/191/9 47/69/9 
f 47/69/9 48/70/9 100/192/9 
s 32
f 101/193/12 100/194/12 48/85/12 
f 48/85/12 55/84/12 101/193/12 
f 102/192/12 101/195/12 55/86/12 
f 55/86/12 56/70/12 102/192/12 
s 64
f 103/196/16 102/197/16 56/106/16 
f 56/106/16 63/105/16 103/196/16 
f 104/198/16 103/196/16 63/105/16 
f 63/105/16 64/107/17 104/198/16 
f 96/199/17 104/198/16 64/107/17 
f 64/107/17 35/108/17 96/199/17 
s 8
f 68/200/3 67/201/3 96/186/7 
f 96/186/7 95/185/7 68/200/3 
f 72/202/3 68/203/3 95/188/7 
f 95/188/7 97/187/7 72/202/3 
s 16
f 74/204/8 72/205/8 97/190/9 
f 97/190/9 98/189/9 74/204/8 
f 78/206/8 74/204/8 98/189/9 
f 98/189/9 99/191/9 78/206/8 
f 84/207/8 78/206/8 99/191/9 
f 99/191/9 100/192/9 84/207/8 
s 32
f 81/208/10 84/209/10 100/194/12 
f 100/194/12 101/193/12 81/208/10 
f 82/207/10 81/210/10 101/195/12 
f 101/195/12 102/192/12 82/207/10 
s 64
f 76/211/13 82/212/13 102/197/16 
f 102/197/16 103/196/16 76/211/13 
f 70/213/13 76/211/13 103/196/16 
f 103/196/16 104/198/16 70/213/13 
f 67/214/13 70/213/13 104/198/16 
f 104/198/16 96/199/17 67/214/13 
usemtl Brick
s 2
f 105/215/1 106/216/1 107/217/1 
f 107/217/1 108/218/1 105/215/1 
usemtl Roof
s 4
f 109/219/2 110/220/2 111/221/2 
f 111/221/2 112/222/2 109/219/2 
usemtl Brick
s 8
f 106/223/8 113/224/28 114/225/28 
f 114/225/28 107/226/8 106/223/8 
s 16
f 105/227/10 115/228/29 113/229/30 
f 113/229/30 106/230/10 105/227/10 
s 32
f 108/231/13 116/232/31 115/233/31 
f 115/233/31 105/234/13 108/231/13 
s 64
f 107/235/5 114/236/32 116/237/33 
f 116/237/33 108/238/3 107/235/5 
s 8
f 117/239/34 118/240/34 114/225/28 
f 114/225/28 113/224/28 117/239/34 
s 16
f 119/241/35 117/242/36 113/229/30 
f 113/229/30 115/228/29 119/241/35 
s 32
f 120/243/37 119/244/37 115/233/31 
f 115/233/31 116/232/31 120/243/37 
s 64
f 118/245/38 120/246/39 116/237/33 
f 116/237/33 114/236/32 118/245/38 
s 8
f 112/247/8 111/248/8 118/240/34 
f 118/240/34 117/239/34 112/247/8 
s 16
f 109/249/10 112/250/10 117/242/36 
f 117/242/36 119/241/35 109/249/10 
s 32
f 110/251/13 109/252/13 119/244/37 
f 119/244/37 120/243/37 110/251/13 
s 64
f 111/253/5 110/254/5 120/246/39 
f 120/246/39 118/245/38 111/253/5 
# 232 faces

