# 3ds Max Wavefront OBJ Exporter v0.97b - (c)2007 guruware
# File Created: 28.05.2015 09:41:20

mtllib skyscraper_windowF_04.mtl

#
# object Object05
#

v  -42.1140 -24.0000 93.0638
v  -15.9999 -24.0000 93.0638
v  -16.0000 -8.0000 93.0638
v  -42.1140 -8.0000 93.0638
v  5.4461 -24.0000 93.0638
v  5.4461 -8.0000 93.0638
v  21.4461 -24.0000 93.0638
v  21.4461 -8.0000 93.0638
v  21.4461 -24.0000 51.0923
v  42.1141 -24.0000 51.0923
v  42.1141 -8.0000 51.0923
v  21.4461 -8.0000 51.0923
v  -41.0833 -5.9385 125.6596
v  -17.0307 -5.9385 125.6596
v  -17.0307 8.0000 125.6597
v  -41.0833 8.0000 125.6596
v  -13.1900 -5.1900 191.8105
v  5.4461 -5.1900 191.8105
v  5.4461 8.0000 191.8105
v  -13.1900 8.0000 191.8105
v  18.6361 -5.1899 191.8105
v  18.6361 8.0000 191.8105
v  22.5909 -5.7103 101.8445
v  40.9692 -5.7103 101.8445
v  40.9693 8.0000 101.8445
v  22.5909 8.0000 101.8445
v  -17.0307 21.9385 125.6596
v  -41.0833 21.9385 125.6596
v  5.4461 21.1900 191.8105
v  -13.1900 21.1900 191.8105
v  18.6361 21.1900 191.8105
v  40.9693 21.7103 101.8445
v  22.5909 21.7103 101.8445
v  -42.1140 -24.0000 51.0923
v  -16.0000 -24.0000 51.0923
v  -16.0000 -24.0000 63.0923
v  -42.1140 -24.0000 63.0923
v  -42.1140 -8.0000 51.0923
v  -42.1140 -8.0000 63.0923
v  5.4461 -24.0000 51.0923
v  5.4461 -24.0000 63.0923
v  21.4461 -24.0000 63.0923
v  21.4461 -8.0000 63.0923
v  -42.1140 8.0000 51.0923
v  -42.1140 8.0000 63.0923
v  42.1141 -8.0000 63.0923
v  42.1141 8.0000 51.0923
v  42.1141 8.0000 63.0923
v  -16.0000 24.0000 51.0923
v  -42.1141 24.0000 51.0923
v  -42.1141 24.0000 63.0923
v  -16.0000 24.0000 63.0923
v  5.4461 24.0000 51.0923
v  5.4461 24.0000 63.0923
v  21.4461 24.0000 51.0923
v  21.4461 24.0000 63.0923
v  42.1141 24.0000 51.0923
v  42.1141 24.0000 63.0923
v  -42.1140 8.0000 93.0638
v  42.1141 -8.0000 93.0638
v  42.1141 8.0000 93.0638
v  -42.1141 24.0000 93.0638
v  -16.0000 24.0000 93.0638
v  5.4461 24.0000 93.0638
v  21.4461 24.0000 93.0638
v  42.1141 24.0000 93.0638
v  -16.0000 -8.0000 105.0285
v  -42.1140 -8.0000 105.0285
v  -42.1140 8.0000 105.0285
v  5.4461 -8.0000 105.0285
v  21.4461 -8.0000 105.0285
v  42.1141 -8.0000 105.0285
v  42.1141 8.0000 105.0285
v  -42.1141 24.0000 105.0285
v  -16.0000 24.0000 105.0285
v  5.4461 24.0000 105.0285
v  21.4461 24.0000 105.0285
v  42.1141 24.0000 105.0285
v  -16.0000 -8.0000 128.6245
v  -42.1140 -8.0000 128.6245
v  -42.1140 8.0000 128.6245
v  5.4461 -8.0000 128.6245
v  21.4461 -8.0000 128.6245
v  21.4461 8.0000 105.0285
v  21.4461 8.0000 128.6245
v  -42.1141 24.0000 128.6245
v  -16.0000 24.0000 128.6245
v  5.4461 24.0000 128.6245
v  21.4461 24.0000 128.6245
v  5.4461 -8.0000 190.4502
v  -16.0000 -8.0000 190.4502
v  -16.0000 8.0000 128.6245
v  -16.0000 8.0000 190.4502
v  21.4461 -8.0000 190.4502
v  21.4461 8.0000 190.4502
v  -16.0000 24.0000 190.4502
v  5.4461 24.0000 190.4502
v  21.4461 24.0000 190.4502
v  5.4461 -6.4535 196.2532
v  -14.4535 -6.4535 196.2531
v  -14.4535 8.0000 196.2532
v  19.8996 -6.4535 196.2531
v  19.8996 8.0000 196.2531
v  -14.4535 22.4536 196.2531
v  5.4461 22.4536 196.2531
v  19.8996 22.4535 196.2531
v  5.4461 -5.1900 196.3581
v  -13.1900 -5.1900 196.3581
v  -13.1900 8.0000 196.3581
v  18.6361 -5.1899 196.3581
v  18.6361 8.0000 196.3581
v  -13.1900 21.1900 196.3581
v  5.4461 21.1900 196.3581
v  18.6361 21.1900 196.3581
v  -17.0307 -5.9385 128.6245
v  -41.0833 -5.9385 128.6245
v  -17.0307 8.0000 128.6245
v  -41.0833 8.0000 128.6245
v  -17.0307 21.9385 128.6245
v  -41.0833 21.9385 128.6245
v  40.9692 -5.7103 105.0285
v  22.5909 -5.7103 105.0285
v  40.9693 8.0000 105.0285
v  22.5909 8.0000 105.0285
v  40.9693 21.7103 105.0285
v  22.5909 21.7103 105.0285
v  -42.1140 -24.0000 31.0923
v  -16.0000 -24.0000 31.0923
v  5.4461 -24.0000 31.0923
v  21.4461 -24.0000 31.0923
v  42.1141 -24.0000 31.0923
v  -42.1140 -8.0000 31.0923
v  42.1141 -8.0000 31.0923
v  -42.1140 8.0000 31.0923
v  42.1141 8.0000 31.0923
v  -42.1141 24.0000 31.0923
v  -16.0000 24.0000 31.0923
v  5.4461 24.0000 31.0923
v  21.4461 24.0000 31.0923
v  42.1141 24.0000 31.0923
v  -42.1140 -24.0000 6.2560
v  -16.0000 -24.0000 6.2560
v  5.4461 -24.0000 6.2560
v  21.4461 -24.0000 6.2560
v  42.1141 -24.0000 6.2560
v  -42.1140 -8.0000 6.2560
v  42.1141 -8.0000 6.2560
v  -42.1140 8.0000 6.2560
v  42.1141 8.0000 6.2560
v  -42.1141 24.0000 6.2560
v  -16.0000 24.0000 6.2560
v  5.4461 24.0000 6.2560
v  21.4461 24.0000 6.2560
v  42.1141 24.0000 6.2560
v  -39.2581 -22.5997 0.0000
v  -7.3675 -22.5997 0.0000
v  -7.3675 -22.5997 6.0000
v  -39.2581 -22.5997 6.0000
v  -39.2582 22.1105 6.0000
v  -7.3675 22.1105 6.0000
v  -7.3675 22.1105 0.0000
v  -39.2582 22.1105 0.0000
v  40.3537 -22.5997 0.0000
v  40.3538 -6.7311 0.0000
v  40.3538 -6.7311 6.0000
v  40.3537 -22.5997 6.0000
v  -39.2582 7.8324 0.0000
v  -39.2582 7.8324 6.0000
v  -7.3675 -19.4385 6.0000
v  -7.3675 -19.4385 0.0000
v  22.1309 -19.4385 0.0000
v  22.1309 -19.4385 6.0000
v  -7.3675 18.9492 0.0000
v  -7.3675 18.9492 6.0000
v  22.1309 18.9492 6.0000
v  22.1309 18.9492 0.0000
v  22.1309 -22.5997 6.0000
v  22.1309 -22.5997 0.0000
v  22.1309 22.1105 0.0000
v  22.1309 22.1105 6.0000
v  40.3537 22.1105 6.0000
v  40.3537 22.1105 0.0000
v  36.8536 -6.7311 6.0000
v  36.8536 -6.7311 0.0000
v  36.8535 7.8324 0.0000
v  36.8535 7.8324 6.0000
v  -39.2582 -6.7311 6.0000
v  -39.2582 -6.7311 0.0000
v  -35.7580 7.8324 6.0000
v  -35.7580 7.8324 0.0000
v  -35.7580 -6.7311 0.0000
v  -35.7580 -6.7311 6.0000
v  40.3537 7.8324 6.0000
v  40.3537 7.8324 0.0000
# 194 vertices

vn 0.0000 0.0000 1.0000
vn 0.0000 -0.0000 1.0000
vn -0.0000 -0.0000 1.0000
vn -0.0000 0.0000 1.0000
vn 0.0000 -1.0000 0.0000
vn -1.0000 -0.0000 0.0000
vn 1.0000 0.0000 0.0000
vn -0.0000 1.0000 0.0000
vn 0.0000 -1.0000 -0.0000
vn -0.0000 -1.0000 0.0000
vn -0.0000 1.0000 -0.0000
vn 0.0000 1.0000 0.0000
vn -0.0000 -0.9663 0.2575
vn -0.9663 -0.0000 0.2575
vn 0.0000 -0.9663 0.2575
vn 0.9663 0.0000 0.2575
vn -0.0000 0.9663 0.2575
vn -0.9663 0.0000 0.2575
vn 0.0000 0.9663 0.2575
vn -0.0000 -0.0828 0.9966
vn 0.0000 -0.0828 0.9966
vn -0.0828 -0.0000 0.9966
vn 0.0828 0.0000 0.9966
vn -0.0000 0.0828 0.9966
vn -0.0828 0.0000 0.9966
vn 0.0000 0.0828 0.9966
vn -1.0000 0.0000 0.0000
vn 0.0000 0.0000 -1.0000
vn 0.0000 0.0000 0.0000
vn 1.0000 -0.0000 0.0000
# 30 vertex normals

vt -2.1321 -12.0000 0.0000
vt -0.5000 -12.0000 0.0000
vt -0.5000 -11.0000 0.0000
vt -2.1321 -11.0000 0.0000
vt 0.8404 -12.0000 0.0000
vt 0.8404 -11.0000 0.0000
vt 1.8404 -12.0000 0.0000
vt 1.8404 -11.0000 0.0000
vt 3.1321 -12.0000 0.0000
vt 3.1321 -11.0000 0.0000
vt -5.2120 -4.1440 0.0000
vt -4.4603 -4.1440 0.0000
vt -4.4603 -3.7085 0.0000
vt -5.2120 -3.7085 0.0000
vt -0.3244 0.1756 0.0000
vt 0.8404 0.1756 0.0000
vt 0.8404 1.0000 0.0000
vt -0.3244 1.0000 0.0000
vt 1.6648 0.1756 0.0000
vt 1.6648 1.0000 0.0000
vt -3.2222 -4.1369 0.0000
vt -2.6478 -4.1369 0.0000
vt -2.6478 -3.7085 0.0000
vt -3.2222 -3.7085 0.0000
vt -4.4603 -3.2729 0.0000
vt -5.2120 -3.2729 0.0000
vt 0.8404 1.8244 0.0000
vt -0.3244 1.8244 0.0000
vt 1.6648 1.8244 0.0000
vt -2.6478 -3.2800 0.0000
vt -3.2222 -3.2800 0.0000
vt -2.1321 -1.7698 0.0000
vt -0.5000 -1.7698 0.0000
vt -0.5000 -1.3948 0.0000
vt -2.1321 -1.3948 0.0000
vt -0.0000 -1.7698 0.0000
vt -1.0000 -1.7698 0.0000
vt -1.0000 -1.3948 0.0000
vt -0.0000 -1.3948 0.0000
vt 0.8404 -1.7698 0.0000
vt 0.8404 -1.3948 0.0000
vt 1.8404 -1.7698 0.0000
vt 1.8404 -1.3948 0.0000
vt 1.0000 -1.7698 0.0000
vt 1.0000 -1.3948 0.0000
vt 3.1321 -1.7698 0.0000
vt 3.1321 -1.3948 0.0000
vt 2.0000 -1.7698 0.0000
vt 2.0000 -1.3948 0.0000
vt -2.1321 -1.4899 0.0000
vt -0.5000 -1.4899 0.0000
vt -0.5000 0.5056 0.0000
vt -2.1321 0.5056 0.0000
vt -12.0000 -1.4899 0.0000
vt -13.0000 -1.4899 0.0000
vt -13.0000 0.5056 0.0000
vt -12.0000 0.5056 0.0000
vt 0.8404 -1.4899 0.0000
vt 0.8404 0.5056 0.0000
vt 1.8404 -1.4899 0.0000
vt 1.8404 0.5056 0.0000
vt -11.0000 -1.4899 0.0000
vt -11.0000 0.5056 0.0000
vt 3.1321 -1.4899 0.0000
vt 3.1321 0.5056 0.0000
vt -10.0000 -1.4899 0.0000
vt -10.0000 0.5056 0.0000
vt -2.1321 -0.4582 0.0000
vt -0.5000 -0.4582 0.0000
vt -0.5000 -0.0843 0.0000
vt -2.1321 -0.0843 0.0000
vt 1.0000 -0.4582 0.0000
vt -0.0000 -0.4582 0.0000
vt -0.0000 -0.0843 0.0000
vt 1.0000 -0.0843 0.0000
vt 0.8404 -0.4582 0.0000
vt 0.8404 -0.0843 0.0000
vt 1.8404 -0.4582 0.0000
vt 1.8404 -0.0843 0.0000
vt 3.1321 -0.4582 0.0000
vt 3.1321 -0.0843 0.0000
vt 2.0000 -0.4582 0.0000
vt 2.0000 -0.0843 0.0000
vt -2.1321 1.5001 0.0000
vt -0.5000 1.5001 0.0000
vt -0.5000 2.7468 0.0000
vt -2.1321 2.7468 0.0000
vt -11.0000 1.5001 0.0000
vt -12.0000 1.5001 0.0000
vt -12.0000 2.7468 0.0000
vt -11.0000 2.7468 0.0000
vt 0.8404 1.5001 0.0000
vt 0.8404 2.7468 0.0000
vt 1.8404 1.5001 0.0000
vt 1.8404 2.7468 0.0000
vt -10.0000 1.5001 0.0000
vt -10.0000 2.7468 0.0000
vt 0.8404 7.0010 0.0000
vt -0.5000 7.0010 0.0000
vt -12.0000 7.0010 0.0000
vt -11.0000 7.0010 0.0000
vt 1.8404 7.0010 0.0000
vt -10.0000 7.0010 0.0000
vt -0.5000 2.5852 0.0000
vt 0.8404 2.5852 0.0000
vt 0.8404 2.7665 0.0000
vt -0.4033 2.7665 0.0000
vt 1.0000 2.5852 0.0000
vt 0.0000 2.5852 0.0000
vt 0.0967 2.7665 0.0000
vt 1.0000 2.7665 0.0000
vt 1.8404 2.5852 0.0000
vt 1.7437 2.7665 0.0000
vt 2.0000 2.5852 0.0000
vt 1.9033 2.7665 0.0000
vt -0.4033 0.0967 0.0000
vt 0.8404 0.0967 0.0000
vt -0.4033 1.0000 0.0000
vt 1.7437 0.0967 0.0000
vt 1.7437 1.0000 0.0000
vt 0.8404 1.9033 0.0000
vt -0.4033 1.9033 0.0000
vt 1.7437 1.9033 0.0000
vt -0.3244 2.7698 0.0000
vt 0.8404 2.7698 0.0000
vt 0.8404 2.6277 0.0000
vt -0.3244 2.6277 0.0000
vt 1.0000 2.7698 0.0000
vt 0.1756 2.7698 0.0000
vt 0.1756 2.6277 0.0000
vt 1.0000 2.6277 0.0000
vt 1.6648 2.7698 0.0000
vt 1.6648 2.6277 0.0000
vt 1.8244 2.7698 0.0000
vt 1.8244 2.6277 0.0000
vt -5.2442 -4.2085 0.0000
vt -4.4281 -4.2085 0.0000
vt -4.4281 -3.7085 0.0000
vt -5.2442 -3.7085 0.0000
vt -4.4281 -3.2085 0.0000
vt -5.2442 -3.2085 0.0000
vt -5.2120 -3.4196 0.0000
vt -4.4603 -3.4196 0.0000
vt -4.4603 -3.5122 0.0000
vt -5.2120 -3.5122 0.0000
vt -4.1440 -3.4196 0.0000
vt -3.7085 -3.4196 0.0000
vt -3.7085 -3.5122 0.0000
vt -4.1440 -3.5122 0.0000
vt -3.2729 -3.4196 0.0000
vt -3.2729 -3.5122 0.0000
vt -3.2579 -4.2085 0.0000
vt -2.6121 -4.2085 0.0000
vt -2.6121 -3.7085 0.0000
vt -3.2579 -3.7085 0.0000
vt -2.6121 -3.2085 0.0000
vt -3.2579 -3.2085 0.0000
vt -3.2222 -4.6308 0.0000
vt -2.6478 -4.6308 0.0000
vt -2.6478 -4.7303 0.0000
vt -3.2222 -4.7303 0.0000
vt -4.1369 -4.6308 0.0000
vt -3.7085 -4.6308 0.0000
vt -3.7085 -4.7303 0.0000
vt -4.1369 -4.7303 0.0000
vt -3.2800 -4.6308 0.0000
vt -3.2800 -4.7303 0.0000
vt -0.5000 -1.9935 0.0000
vt -2.1321 -1.9935 0.0000
vt -2.1321 -3.4077 0.0000
vt -0.5000 -3.4077 0.0000
vt 0.8404 -1.9935 0.0000
vt 0.8404 -3.4077 0.0000
vt 1.8404 -1.9935 0.0000
vt 1.8404 -3.4077 0.0000
vt 3.1321 -1.9935 0.0000
vt 3.1321 -3.4077 0.0000
vt -13.0000 -1.9935 0.0000
vt -12.0000 -1.9935 0.0000
vt -12.0000 -3.4077 0.0000
vt -13.0000 -3.4077 0.0000
vt -11.0000 -1.9935 0.0000
vt -11.0000 -3.4077 0.0000
vt -10.0000 -1.9935 0.0000
vt -10.0000 -3.4077 0.0000
vt -2.1321 -4.9600 0.0000
vt -0.5000 -4.9600 0.0000
vt 0.8404 -4.9600 0.0000
vt 1.8404 -4.9600 0.0000
vt 3.1321 -4.9600 0.0000
vt -12.0000 -4.9600 0.0000
vt -13.0000 -4.9600 0.0000
vt -11.0000 -4.9600 0.0000
vt -10.0000 -4.9600 0.0000
vt -3.2579 -4.7085 0.0000
vt -3.7579 -4.7085 0.0000
vt -4.4281 -4.7085 0.0000
vt -5.2442 -4.7085 0.0000
vt -2.6121 -4.7085 0.0000
vt -3.7579 -3.2085 0.0000
vt -0.5031 0.0000 0.0000
vt 0.5101 0.0000 0.0000
vt 0.5101 0.2555 0.0000
vt -0.5031 0.2555 0.0000
vt 0.5095 0.0000 0.0000
vt 0.5095 0.2555 0.0000
vt 0.5091 0.0000 0.0000
vt 0.5091 0.2555 0.0000
vt -1.0004 1.0000 0.0000
vt -1.0004 0.0000 0.0000
vt 2.0004 0.0000 0.0000
vt 2.0004 1.0000 0.0000
vt 0.9945 0.2555 0.0000
vt 0.9945 0.0000 0.0000
vt 1.5031 0.0000 0.0000
vt 1.5031 0.2555 0.0000
vt -0.9258 1.0000 0.0000
vt -0.9258 0.0000 0.0000
vt 0.7146 0.0000 0.0000
vt 0.7146 1.0000 0.0000
vt 0.9947 0.2555 0.0000
vt 0.9947 0.0000 0.0000
# 222 texture coords

g Object05
usemtl ConcES_BSG
s off
f 1/1/1 2/2/1 3/3/1 
f 1/1/1 3/3/1 4/4/1 
f 2/2/1 5/5/1 6/6/1 
f 2/2/1 6/6/1 3/3/1 
f 5/5/1 7/7/1 8/8/1 
f 5/5/1 8/8/1 6/6/1 
f 9/7/1 10/9/1 11/10/1 
f 9/7/1 11/10/1 12/8/1 
f 13/11/2 14/12/2 15/13/2 
f 13/11/3 15/13/3 16/14/3 
s 64
f 17/15/1 18/16/1 19/17/1 
f 17/15/1 19/17/1 20/18/4 
f 18/16/1 21/19/1 22/20/1 
f 18/16/1 22/20/1 19/17/1 
s off
f 23/21/4 24/22/4 25/23/4 
f 23/21/1 25/23/1 26/24/1 
f 16/14/4 15/13/4 27/25/4 
f 16/14/1 27/25/1 28/26/1 
s 64
f 20/18/4 19/17/1 29/27/1 
f 20/18/4 29/27/1 30/28/4 
f 19/17/1 22/20/1 31/29/1 
f 19/17/1 31/29/1 29/27/1 
s off
f 26/24/1 25/23/1 32/30/1 
f 26/24/1 32/30/1 33/31/1 
usemtl ConcES_ESG
s 1024
f 34/32/5 35/33/5 36/34/5 
f 34/32/5 36/34/5 37/35/5 
s 2048
f 38/36/6 34/37/6 37/38/6 
f 38/36/6 37/38/6 39/39/6 
s 1024
f 35/33/5 40/40/5 41/41/5 
f 35/33/5 41/41/5 36/34/5 
f 40/40/5 9/42/5 42/43/5 
f 40/40/5 42/43/5 41/41/5 
s off
f 9/37/7 12/36/7 43/39/7 
f 9/37/7 43/39/7 42/38/7 
s 2048
f 44/44/6 38/36/6 39/39/6 
f 44/44/6 39/39/6 45/45/6 
s off
f 12/42/5 11/46/5 46/47/5 
f 12/42/5 46/47/5 43/43/5 
s 16384
f 11/36/7 47/44/7 48/45/7 
f 11/36/7 48/45/7 46/39/7 
s 32768
f 49/33/8 50/32/8 51/35/8 
f 49/33/8 51/35/8 52/34/8 
s 2048
f 50/48/6 44/44/6 45/45/6 
f 50/48/6 45/45/6 51/49/6 
s 32768
f 53/40/8 49/33/8 52/34/8 
f 53/40/8 52/34/8 54/41/8 
f 55/42/8 53/40/8 54/41/8 
f 55/42/8 54/41/8 56/43/8 
s 16384
f 47/44/7 57/48/7 58/49/7 
f 47/44/7 58/49/7 48/45/7 
s 32768
f 57/46/8 55/42/8 56/43/8 
f 57/46/8 56/43/8 58/47/8 
usemtl Windx4_F
s off
f 37/50/5 36/51/5 2/52/5 
f 37/50/5 2/52/5 1/53/5 
f 39/54/6 37/55/6 1/56/6 
f 39/54/6 1/56/6 4/57/6 
f 36/51/5 41/58/5 5/59/5 
f 36/51/9 5/59/9 2/52/9 
f 41/58/5 42/60/5 7/61/5 
f 41/58/5 7/61/5 5/59/5 
f 42/55/7 43/54/7 8/57/7 
f 42/55/7 8/57/7 7/56/7 
f 45/62/6 39/54/6 4/57/6 
f 45/62/6 4/57/6 59/63/6 
f 43/60/5 46/64/5 60/65/5 
f 43/60/5 60/65/5 8/61/5 
f 46/54/7 48/62/7 61/63/7 
f 46/54/7 61/63/7 60/57/7 
f 52/51/8 51/50/8 62/53/8 
f 52/51/8 62/53/8 63/52/8 
f 51/66/6 45/62/6 59/63/6 
f 51/66/6 59/63/6 62/67/6 
f 54/58/8 52/51/8 63/52/8 
f 54/58/8 63/52/8 64/59/8 
f 56/60/8 54/58/8 64/59/8 
f 56/60/8 64/59/8 65/61/8 
f 48/62/7 58/66/7 66/67/7 
f 48/62/7 66/67/7 61/63/7 
f 58/64/8 56/60/8 65/61/8 
f 58/64/8 65/61/8 66/65/8 
usemtl ConcES_ESG
f 4/68/5 3/69/5 67/70/5 
f 4/68/5 67/70/5 68/71/5 
f 59/72/6 4/73/6 68/74/6 
f 59/72/6 68/74/6 69/75/6 
f 3/69/5 6/76/5 70/77/5 
f 3/69/5 70/77/5 67/70/5 
f 6/76/5 8/78/5 71/79/5 
f 6/76/5 71/79/5 70/77/5 
f 8/78/5 60/80/5 72/81/5 
f 8/78/5 72/81/5 71/79/5 
f 60/73/7 61/72/7 73/75/7 
f 60/73/7 73/75/7 72/74/7 
f 63/69/8 62/68/8 74/71/8 
f 63/69/8 74/71/8 75/70/8 
f 62/82/6 59/72/6 69/75/6 
f 62/82/6 69/75/6 74/83/6 
f 64/76/8 63/69/8 75/70/8 
f 64/76/8 75/70/8 76/77/8 
f 65/78/8 64/76/8 76/77/8 
f 65/78/8 76/77/8 77/79/8 
f 61/72/7 66/82/7 78/83/7 
f 61/72/7 78/83/7 73/75/7 
f 66/80/8 65/78/8 77/79/8 
f 66/80/8 77/79/8 78/81/8 
usemtl Windx4_F
f 68/84/5 67/85/5 79/86/5 
f 68/84/5 79/86/5 80/87/5 
f 69/88/6 68/89/6 80/90/6 
f 69/88/6 80/90/6 81/91/6 
f 67/85/5 70/92/5 82/93/5 
f 67/85/5 82/93/5 79/86/5 
f 70/92/5 71/94/5 83/95/5 
f 70/92/5 83/95/5 82/93/5 
f 71/89/7 84/88/7 85/91/7 
f 71/89/7 85/91/7 83/90/7 
f 75/85/8 74/84/8 86/87/8 
f 75/85/8 86/87/8 87/86/8 
f 74/96/6 69/88/6 81/91/6 
f 74/96/6 81/91/6 86/97/6 
f 76/92/8 75/85/8 87/86/8 
f 76/92/8 87/86/8 88/93/8 
f 84/88/7 77/96/7 89/97/7 
f 84/88/7 89/97/7 85/91/7 
f 77/94/8 76/92/8 88/93/8 
f 77/94/8 88/93/8 89/95/8 
f 79/86/5 82/93/5 90/98/5 
f 79/86/10 90/98/10 91/99/10 
f 92/91/6 79/90/6 91/100/6 
f 92/91/6 91/100/6 93/101/6 
f 82/93/5 83/95/5 94/102/5 
f 82/93/5 94/102/5 90/98/5 
f 83/90/7 85/91/7 95/101/7 
f 83/90/7 95/101/7 94/100/7 
f 88/93/11 87/86/11 96/99/11 
f 88/93/11 96/99/11 97/98/11 
f 87/97/6 92/91/6 93/101/6 
f 87/97/6 93/101/6 96/103/6 
f 85/91/7 89/97/7 98/103/7 
f 85/91/7 98/103/7 95/101/7 
f 89/95/11 88/93/11 97/98/11 
f 89/95/12 97/98/12 98/102/12 
usemtl ConcES_ESG
f 91/104/13 90/105/13 99/106/13 
f 91/104/13 99/106/13 100/107/13 
f 93/108/14 91/109/14 100/110/14 
f 93/108/14 100/110/14 101/111/14 
f 90/105/15 94/112/15 102/113/15 
f 90/105/15 102/113/15 99/106/15 
f 94/109/16 95/108/16 103/111/16 
f 94/109/16 103/111/16 102/110/16 
f 97/105/17 96/104/17 104/107/17 
f 97/105/17 104/107/17 105/106/17 
f 96/114/18 93/108/18 101/111/18 
f 96/114/18 101/111/18 104/115/18 
f 95/108/16 98/114/16 106/115/16 
f 95/108/16 106/115/16 103/111/16 
f 98/112/19 97/105/19 105/106/19 
f 98/112/19 105/106/19 106/113/19 
f 100/116/20 99/117/20 107/16/20 
f 100/116/21 107/16/21 108/15/21 
f 101/118/22 100/116/22 108/15/22 
f 101/118/22 108/15/22 109/18/22 
f 99/117/21 102/119/21 110/19/21 
f 99/117/21 110/19/21 107/16/21 
f 102/119/23 103/120/23 111/20/23 
f 102/119/23 111/20/23 110/19/23 
f 105/121/24 104/122/24 112/28/24 
f 105/121/24 112/28/24 113/27/24 
f 104/122/25 101/118/25 109/18/25 
f 104/122/25 109/18/25 112/28/25 
f 103/120/23 106/123/23 114/29/23 
f 103/120/23 114/29/23 111/20/23 
f 106/123/26 105/121/26 113/27/26 
f 106/123/26 113/27/26 114/29/26 
f 108/124/8 107/125/8 18/126/8 
f 108/124/8 18/126/8 17/127/8 
f 109/128/7 108/129/7 17/130/7 
f 109/128/7 17/130/7 20/131/7 
f 107/125/8 110/132/8 21/133/8 
f 107/125/8 21/133/8 18/126/8 
f 110/129/6 111/128/6 22/131/6 
f 110/129/6 22/131/6 21/130/6 
f 113/125/5 112/124/5 30/127/5 
f 113/125/5 30/127/5 29/126/5 
f 112/134/7 109/128/7 20/131/7 
f 112/134/7 20/131/7 30/135/7 
f 111/128/6 114/134/6 31/135/6 
f 111/128/6 31/135/6 22/131/6 
f 114/132/10 113/125/10 29/126/10 
f 114/132/10 29/126/10 31/133/10 
f 80/136/1 79/137/1 115/12/1 
f 80/136/1 115/12/1 116/11/1 
f 79/137/2 92/138/2 117/13/2 
f 79/137/3 117/13/3 115/12/3 
f 81/139/1 80/136/1 116/11/1 
f 81/139/1 116/11/1 118/14/1 
f 92/138/4 87/140/4 119/25/4 
f 92/138/4 119/25/4 117/13/4 
f 87/140/1 86/141/1 120/26/1 
f 87/140/1 120/26/1 119/25/1 
f 86/141/1 81/139/1 118/14/1 
f 86/141/1 118/14/1 120/26/1 
f 116/142/8 115/143/8 14/144/8 
f 116/142/8 14/144/8 13/145/8 
f 115/146/6 117/147/6 15/148/6 
f 115/146/6 15/148/6 14/149/6 
f 118/147/7 116/146/7 13/149/7 
f 118/147/7 13/149/7 16/148/7 
f 117/147/6 119/150/6 27/151/6 
f 117/147/6 27/151/6 15/148/6 
f 119/143/5 120/142/5 28/145/5 
f 119/143/5 28/145/5 27/144/5 
f 120/150/7 118/147/7 16/148/7 
f 120/150/7 16/148/7 28/151/7 
f 71/152/3 72/153/3 121/22/3 
f 71/152/4 121/22/4 122/21/4 
f 72/153/4 73/154/4 123/23/4 
f 72/153/1 123/23/1 121/22/1 
f 84/155/1 71/152/1 122/21/1 
f 84/155/1 122/21/1 124/24/1 
f 73/154/4 78/156/4 125/30/4 
f 73/154/4 125/30/4 123/23/4 
f 78/156/1 77/157/1 126/31/1 
f 78/156/1 126/31/1 125/30/1 
f 77/157/1 84/155/1 124/24/1 
f 77/157/1 124/24/1 126/31/1 
f 122/158/12 121/159/12 24/160/12 
f 122/158/12 24/160/12 23/161/12 
f 121/162/27 123/163/27 25/164/27 
f 121/162/27 25/164/27 24/165/27 
f 124/163/7 122/162/7 23/165/7 
f 124/163/7 23/165/7 26/164/7 
f 123/163/6 125/166/6 32/167/6 
f 123/163/6 32/167/6 25/164/6 
f 125/159/5 126/158/5 33/161/5 
f 125/159/5 33/161/5 32/160/5 
f 126/166/7 124/163/7 26/164/7 
f 126/166/7 26/164/7 33/167/7 
usemtl Windx4_F
s 1024
f 35/168/5 34/169/5 127/170/5 
f 35/168/5 127/170/5 128/171/5 
f 40/172/5 35/168/5 128/171/5 
f 40/172/5 128/171/5 129/173/5 
f 9/174/5 40/172/5 129/173/5 
f 9/174/5 129/173/5 130/175/5 
f 10/176/5 9/174/5 130/175/5 
f 10/176/5 130/175/5 131/177/5 
s 2048
f 34/178/6 38/179/6 132/180/6 
f 34/178/6 132/180/6 127/181/6 
s 16384
f 11/179/7 10/178/7 131/181/7 
f 11/179/7 131/181/7 133/180/7 
s 2048
f 38/179/6 44/182/6 134/183/6 
f 38/179/6 134/183/6 132/180/6 
s 16384
f 47/182/7 11/179/7 133/180/7 
f 47/182/7 133/180/7 135/183/7 
s 2048
f 44/182/6 50/184/6 136/185/6 
f 44/182/6 136/185/6 134/183/6 
s 32768
f 50/169/8 49/168/8 137/171/8 
f 50/169/8 137/171/8 136/170/8 
f 49/168/8 53/172/8 138/173/8 
f 49/168/8 138/173/8 137/171/8 
f 53/172/8 55/174/8 139/175/8 
f 53/172/8 139/175/8 138/173/8 
s 16384
f 57/184/7 47/182/7 135/183/7 
f 57/184/7 135/183/7 140/185/7 
s 32768
f 55/174/8 57/176/8 140/177/8 
f 55/174/8 140/177/8 139/175/8 
s 1024
f 128/171/5 127/170/5 141/186/5 
f 128/171/5 141/186/5 142/187/5 
f 129/173/5 128/171/5 142/187/5 
f 129/173/5 142/187/5 143/188/5 
f 130/175/5 129/173/5 143/188/5 
f 130/175/5 143/188/5 144/189/5 
f 131/177/5 130/175/5 144/189/5 
f 131/177/5 144/189/5 145/190/5 
s 2048
f 127/181/6 132/180/6 146/191/6 
f 127/181/6 146/191/6 141/192/6 
s 16384
f 133/180/7 131/181/7 145/192/7 
f 133/180/7 145/192/7 147/191/7 
s 2048
f 132/180/6 134/183/6 148/193/6 
f 132/180/6 148/193/6 146/191/6 
s 16384
f 135/183/7 133/180/7 147/191/7 
f 135/183/7 147/191/7 149/193/7 
s 2048
f 134/183/6 136/185/6 150/194/6 
f 134/183/6 150/194/6 148/193/6 
s 32768
f 136/170/8 137/171/8 151/187/8 
f 136/170/8 151/187/8 150/186/8 
f 137/171/8 138/173/8 152/188/8 
f 137/171/8 152/188/8 151/187/8 
f 138/173/8 139/175/8 153/189/8 
f 138/173/8 153/189/8 152/188/8 
s 16384
f 140/185/7 135/183/7 149/193/7 
f 140/185/7 149/193/7 154/194/7 
s 32768
f 139/175/8 140/177/8 154/190/8 
f 139/175/8 154/190/8 153/189/8 
usemtl ConcES_ESG
s off
f 146/136/28 148/139/28 149/154/28 
f 146/136/28 149/154/28 147/153/28 
f 144/195/29 143/196/29 142/197/29 
f 144/195/29 142/197/29 141/198/29 
f 144/195/28 141/198/28 146/136/28 
f 144/195/28 146/136/28 147/153/28 
f 144/195/28 147/153/28 145/199/28 
f 151/140/29 152/200/29 153/157/29 
f 151/140/29 153/157/29 154/156/29 
f 151/140/28 154/156/28 149/154/28 
f 151/140/28 149/154/28 148/139/28 
f 151/140/28 148/139/28 150/141/28 
usemtl Windx4_C
f 155/201/5 156/202/5 157/203/5 
f 155/201/5 157/203/5 158/204/5 
f 159/201/8 160/202/8 161/203/8 
f 159/201/8 161/203/8 162/204/8 
f 163/201/30 164/205/30 165/206/30 
f 163/201/30 165/206/30 166/204/30 
f 162/201/6 167/207/6 168/208/6 
f 162/201/6 168/208/6 159/204/6 
usemtl DoorDb_BSG
f 169/209/5 170/210/5 171/211/5 
f 169/209/5 171/211/5 172/212/5 
f 173/210/8 174/209/8 175/212/8 
f 173/210/8 175/212/8 176/211/8 
usemtl Windx4_C
f 177/213/5 178/214/5 163/215/5 
f 177/213/5 163/215/5 166/216/5 
f 179/213/8 180/214/8 181/215/8 
f 179/213/8 181/215/8 182/216/8 
usemtl DoorDb_BSG
f 183/217/7 184/218/7 185/219/7 
f 183/217/7 185/219/7 186/220/7 
usemtl Windx4_C
f 187/221/6 188/222/6 155/215/6 
f 187/221/6 155/215/6 158/216/6 
usemtl DoorDb_BSG
f 189/220/6 190/219/6 191/218/6 
f 189/220/6 191/218/6 192/217/6 
usemtl Windx4_C
f 193/221/7 194/222/7 182/215/7 
f 193/221/7 182/215/7 181/216/7 
f 157/203/7 156/202/7 170/202/7 
f 157/203/7 170/202/7 169/203/7 
f 178/214/6 177/213/6 172/213/6 
f 178/214/6 172/213/6 171/214/6 
f 161/203/7 160/202/7 174/202/7 
f 161/203/7 174/202/7 173/203/7 
f 180/214/6 179/213/6 176/213/6 
f 180/214/6 176/213/6 175/214/6 
f 165/206/12 164/205/12 184/205/12 
f 165/206/12 184/205/12 183/206/12 
f 194/222/5 193/221/5 186/221/5 
f 194/222/5 186/221/5 185/222/5 
f 168/208/5 167/207/5 190/207/5 
f 168/208/5 190/207/5 189/208/5 
f 188/222/8 187/221/8 192/221/8 
f 188/222/8 192/221/8 191/222/8 
# 344 faces

